<svg clip-rule="evenodd" fill-rule="evenodd" height="512" stroke-linejoin="round" stroke-miterlimit="2" viewBox="0 0 267 267" width="512" xmlns="http://www.w3.org/2000/svg"><path d="m137.844 72.235c4.982-1.209 8.39-2.499 9.779-3.444 2.577-1.756 13.516-5.541 21.35-6.65 2.121-.3 4.025-.404 5.504-.258 1.298.128 2.331.465 3.054.933 1.921 1.247 7.897 2.23 14.462 2.494.947.038 1.748.71 1.951 1.636s-.245 1.871-1.089 2.302c-18.282 9.315-42.013 6.524-54.425 7.092-1.072.049-2.006-.724-2.157-1.786-.152-1.063.528-2.066 1.571-2.319zm-80.979 17.917c1.592-2.54 2.713-6.776 4.509-9.639 1.659-2.646 3.847-4.259 6.808-3.956 16.183 1.657 28.914-1.501 39.762-1.315 8.864.152 16.682-.562 23.049-1.621.973-.161 1.926.382 2.284 1.302.357.92.019 1.964-.809 2.501-4.729 3.069-21.124 10.003-32.637 12.722-3.082.728-5.83 1.154-7.945 1.162-1.765.007-3.166-.297-4.121-.822-1.941-1.066-4.439-.642-6.945.143-4.58 1.434-9.172 4.303-11.517 5.237-2.366.943-4.005.747-5.916-.042-1.405-.579-3.009-1.594-5.549-2.639-.568-.233-1.004-.706-1.191-1.29-.188-.585-.108-1.222.218-1.743z" fill="#9cbfff"/><path d="m131.588 22.918c4.983-1.642 34.895-10.941 61.108-6.776 19.654 3.123 37.252 13.657 41.426 39.989.178 1.124-.002 2.044-.41 2.821-.532 1.015-1.523 1.836-3.011 2.409-1.527.589-3.721.959-6.301 1.425-3.459.624-7.691 1.463-11.817 3.624-5.838 3.058-16.39 3.569-24.85 2.795-5.827-.534-10.663-1.722-12.47-2.893-.277-.18-.695-.233-1.194-.282-1.214-.12-2.774-.009-4.512.237-7.175 1.015-17.229 4.36-19.589 5.968-3.633 2.474-19.65 7.559-42.095 7.173-10.944-.188-23.789 2.966-40.116 1.294-.984-.101-1.681.462-2.289 1.222-.62.774-1.136 1.754-1.618 2.799-1.48 3.214-2.679 6.955-4.36 8.877-.677.774-2.193 1.66-4.275 2.381-3.982 1.379-10.248 2.478-14.834 2.522-2.225.021-4.094-.232-5.266-.717-.87-.36-1.475-.868-1.85-1.42-4.466-6.58-6.174-19.152-3.487-32.554 3.087-15.399 11.889-31.866 28.413-41.322 16.232-9.289 40.028-11.877 73.397.428z" fill="#e2e7ff"/><path d="m173.445 92.261c-6.465 3.858-13.021 9.101-20.105 12.973-7.48 4.088-15.532 6.662-24.598 4.927-33.702-6.451-46.811.488-53.24 5.372-1.886 1.432-4.859 2.039-8.395 1.996-4.564-.055-10.161-1.098-15.09-1.865-3.052-.475-5.828-.849-7.863-.733-.432.025-.823.072-1.164.156-.219.053-.417.079-.531.202-.66.712-1.724.875-2.566.391-.842-.483-1.238-1.484-.956-2.413 1.846-6.068 7.492-9.762 19.987-7.984 10.586 1.506 29.713-3.482 33.262-5.092 3.865-1.753 17.956-5.855 25.015-4.483 6.416 1.247 20.358.337 25.955-1.914 6.047-2.432 24.658-5.786 28.705-5.468.275.022.53.049.769.078.884.108 1.602.766 1.786 1.638.184.871-.207 1.763-.971 2.219zm56.947-12.059c-3.001 3.008-6.601 6.968-10.011 9.499-2.761 2.049-5.496 3.129-7.786 2.759-7.032-1.138-17.603-5.461-26.082-5.01-.959.051-1.829-.561-2.105-1.48-.277-.92.11-1.909.938-2.396 10.091-5.938 32.416-7.42 43.663-6.925.825.037 1.55.557 1.85 1.326.299.769.116 1.643-.467 2.227z" fill="#9cbfff"/><path d="m237.756 75.982c1.425 8.628-.782 18.684-5.605 30.537-6.994 17.184-19.494 38.311-33.678 64.67-2.806 5.214-3.534 12.316-3.521 20.08.021 12.253 1.956 26.103 1.554 37.287-.339 9.473-2.484 17.09-8.089 20.867-2.501 1.686-5.702 2.66-9.805 2.66-12.889 0-20.195-10.915-25.297-26.012-4.294-12.707-7.172-28.341-11.382-41.877-2.364-7.602-5.134-14.534-8.884-19.816-5.196 7.994-21.693 34.975-26.732 62.527-2.684 14.672-8.455 20.177-14.275 21.045-3.634.542-7.479-.684-11.013-2.959-4.935-3.178-9.265-8.382-11.484-12.838-8.629-17.326-19.935-45.282-18.994-78.438.304-10.713-7.284-23.557-10.564-31.653-.968-2.391-1.582-4.429-1.68-5.957-.103-1.598.319-2.809 1.095-3.647.704-.76 1.806-1.32 3.298-1.559 2.337-.374 5.937.023 9.957.648 4.738.737 10.114 1.763 14.5 1.816 2.433.029 4.527-.163 5.825-1.149 6.834-5.19 20.721-13.002 56.543-6.146 10.484 2.007 19.399-2.637 27.717-8.056 9.003-5.864 17.365-12.62 25.969-14.345 3.833-.769 8.252-.376 12.717.503 6.245 1.23 12.587 3.409 17.333 4.177.732.118 1.52-.15 2.364-.564 1.149-.564 2.346-1.432 3.56-2.447 4.068-3.402 8.242-8.383 11.199-10.816.975-.802 1.863-1.36 2.603-1.639.894-.338 1.688-.345 2.354-.142 1.038.316 2.075 1.187 2.415 3.243z" fill="#dae4ff"/><g fill="#233260"><path d="m134.384 159.331c.818.807.827 2.127.019 2.946-.807.818-2.127.827-2.946.02-3.128-3.248-5.48-6.744-10.831-8.984-3.303-1.383-7.713-2.303-14.078-2.465-.73 0-1.323-.593-1.323-1.323 0-.731.593-1.324 1.323-1.324 6.874-.175 11.675.627 15.313 1.937 6.026 2.169 8.892 5.787 12.523 9.193z"/><path d="m130.967 23.128c1.104-.324 2.262.308 2.587 1.411.324 1.104-.309 2.262-1.412 2.587 0 0-13.886 3.815-27.124 11.684-5.594 3.324-11.076 7.364-15.328 12.159-.436.508-1.202.568-1.711.132-.508-.435-.568-1.202-.132-1.71 4.258-5.152 9.819-9.569 15.529-13.237 13.386-8.599 27.591-13.026 27.591-13.026z"/><path d="m131.588 22.918c4.983-1.642 34.895-10.941 61.108-6.776 19.654 3.123 37.252 13.657 41.426 39.989.178 1.124-.002 2.044-.41 2.821-.532 1.015-1.523 1.836-3.011 2.409-1.527.589-3.721.959-6.301 1.425-3.459.624-7.691 1.463-11.817 3.624-5.838 3.058-16.39 3.569-24.85 2.795-5.827-.534-10.663-1.722-12.47-2.893-.277-.18-.695-.233-1.194-.282-1.214-.12-2.774-.009-4.512.237-7.175 1.015-17.229 4.36-19.589 5.968-3.633 2.474-19.65 7.559-42.095 7.173-10.944-.188-23.789 2.966-40.116 1.294-.984-.101-1.681.462-2.289 1.222-.62.774-1.136 1.754-1.618 2.799-1.48 3.214-2.679 6.955-4.36 8.877-.677.774-2.193 1.66-4.275 2.381-3.982 1.379-10.248 2.478-14.834 2.522-2.225.021-4.094-.232-5.266-.717-.87-.36-1.475-.868-1.85-1.42-4.466-6.58-6.174-19.152-3.487-32.554 3.087-15.399 11.889-31.866 28.413-41.322 16.232-9.289 40.028-11.877 73.397.428zm-94.967 70.971c.123.048.456.173.707.227.811.171 1.847.231 3.013.22 4.177-.04 9.884-1.037 13.51-2.292 1.179-.409 2.12-.75 2.503-1.188.826-.943 1.45-2.453 2.11-4.062.793-1.932 1.591-4.003 2.568-5.71 1.7-2.969 3.988-4.85 7.15-4.527 16.183 1.657 28.914-1.501 39.762-1.315 21.13.363 36.259-4.122 39.679-6.451 2.577-1.756 13.516-5.541 21.35-6.65 2.121-.3 4.025-.404 5.504-.258 1.298.128 2.331.465 3.054.933 1.526.99 5.658 1.789 10.582 2.239 7.665.702 17.247.434 22.537-2.336 6.382-3.343 12.975-3.847 17.06-4.808.655-.154 1.231-.317 1.707-.525.336-.147.646-.248.59-.602-3.819-24.094-19.982-33.67-37.965-36.527-27.757-4.41-59.799 6.836-59.799 6.836-.459.161-.961.156-1.417-.015-32.129-11.998-54.999-9.88-70.566-.971-15.387 8.805-23.521 24.184-26.396 38.524-2.405 11.997-1.199 23.286 2.757 29.258z"/><path d="m137.844 72.235c4.982-1.209 8.39-2.499 9.779-3.444 2.577-1.756 13.516-5.541 21.35-6.65 2.121-.3 4.025-.404 5.504-.258 1.298.128 2.331.465 3.054.933 1.921 1.247 7.897 2.23 14.462 2.494.947.038 1.748.71 1.951 1.636s-.245 1.871-1.089 2.302c-18.282 9.315-42.013 6.524-54.425 7.092-1.072.049-2.006-.724-2.157-1.786-.152-1.063.528-2.066 1.571-2.319zm12.192-.046c9.92.121 22.148.003 33.303-3.553-3.787-.613-6.755-1.467-8.076-2.324-.277-.18-.695-.233-1.194-.282-1.214-.12-2.774-.009-4.512.237-7.108 1.005-17.041 4.298-19.521 5.922zm-93.171 17.963c1.592-2.54 2.713-6.776 4.509-9.639 1.659-2.646 3.847-4.259 6.808-3.956 16.183 1.657 28.914-1.501 39.762-1.315 8.864.152 16.682-.562 23.049-1.621.973-.161 1.926.382 2.284 1.302.357.92.019 1.964-.809 2.501-4.729 3.069-21.124 10.003-32.637 12.722-3.082.728-5.83 1.154-7.945 1.162-1.765.007-3.166-.297-4.121-.822-1.941-1.066-4.439-.642-6.945.143-4.58 1.434-9.172 4.303-11.517 5.237-2.366.943-4.005.747-5.916-.042-1.405-.579-3.009-1.594-5.549-2.639-.568-.233-1.004-.706-1.191-1.29-.188-.585-.108-1.222.218-1.743zm4.63.107c1.065.514 1.941.987 2.726 1.37 1.234.601 2.122.931 3.54.366 2.403-.957 7.12-3.873 11.814-5.343 3.679-1.151 7.346-1.383 10.196.183.482.264 1.208.31 2.098.307 1.866-.008 4.286-.409 7.004-1.051 6.314-1.491 14.164-4.29 20.562-6.959-3.615.238-7.481.346-11.562.276-10.944-.188-23.789 2.966-40.116 1.294-.881-.09-1.534.356-2.098.994-.572.648-1.053 1.477-1.5 2.38-.977 1.972-1.786 4.252-2.664 6.183z"/><path d="m237.756 75.982c1.425 8.628-.782 18.684-5.605 30.537-6.994 17.184-19.494 38.311-33.678 64.67-2.806 5.214-3.534 12.316-3.521 20.08.021 12.253 1.956 26.103 1.554 37.287-.339 9.473-2.484 17.09-8.089 20.867-2.501 1.686-5.702 2.66-9.805 2.66-12.889 0-20.195-10.915-25.297-26.012-4.294-12.707-7.172-28.341-11.382-41.877-2.364-7.602-5.134-14.534-8.884-19.816-5.196 7.994-21.693 34.975-26.732 62.527-2.684 14.672-8.455 20.177-14.275 21.045-3.634.542-7.479-.684-11.013-2.959-4.935-3.178-9.265-8.382-11.484-12.838-8.629-17.326-19.935-45.282-18.994-78.438.304-10.713-7.284-23.557-10.564-31.653-.968-2.391-1.582-4.429-1.68-5.957-.103-1.598.319-2.809 1.095-3.647.704-.76 1.806-1.32 3.298-1.559 2.337-.374 5.937.023 9.957.648 4.738.737 10.114 1.763 14.5 1.816 2.433.029 4.527-.163 5.825-1.149 6.834-5.19 20.721-13.002 56.543-6.146 10.484 2.007 19.399-2.637 27.717-8.056 9.003-5.864 17.365-12.62 25.969-14.345 3.833-.769 8.252-.376 12.717.503 6.245 1.23 12.587 3.409 17.333 4.177.732.118 1.52-.15 2.364-.564 1.149-.564 2.346-1.432 3.56-2.447 4.068-3.402 8.242-8.383 11.199-10.816.975-.802 1.863-1.36 2.603-1.639.894-.338 1.688-.345 2.354-.142 1.038.316 2.075 1.187 2.415 3.243zm-4.026 1.231c-.117.077-.234.158-.339.239-.754.578-1.601 1.368-2.519 2.274-3.022 2.978-6.726 7.118-10.247 9.792-2.846 2.16-5.675 3.323-8.03 2.942-4.011-.649-9.15-2.283-14.416-3.533-4.906-1.165-9.928-2.021-14.148-1.175-8.152 1.635-15.986 8.196-24.515 13.751-9.213 6.002-19.163 10.88-30.774 8.658-33.702-6.451-46.811.488-53.24 5.372-1.886 1.432-4.859 2.039-8.395 1.996-4.564-.055-10.161-1.098-15.09-1.865-3.052-.475-5.828-.849-7.863-.733-.432.025-.823.072-1.164.156-.196.048-.375.073-.492.166-.01.048-.031.149-.035.216-.018.263.009.559.063.886.185 1.137.672 2.536 1.323 4.143 3.446 8.506 11.186 22.079 10.867 33.336-.917 32.325 10.146 59.57 18.558 76.461 1.935 3.885 5.708 8.422 10.011 11.193 2.625 1.69 5.442 2.744 8.142 2.341 2.152-.321 4.169-1.615 5.938-4.125 2.042-2.898 3.707-7.285 4.853-13.549 6.16-33.675 28.992-66.531 28.992-66.531.37-.531.965-.86 1.611-.891s1.27.24 1.689.733c4.96 5.851 8.507 14.18 11.402 23.49 4.2 13.505 7.066 29.104 11.351 41.781 2.288 6.771 4.965 12.692 8.547 16.904 3.322 3.907 7.439 6.276 12.802 6.276 10.756 0 13.333-8.431 13.73-19.51.4-11.138-1.535-24.93-1.556-37.131-.015-8.54.931-16.326 4.017-22.062 14.098-26.197 26.538-47.187 33.488-64.266 4.371-10.738 6.573-19.859 5.439-27.735z"/><path d="m173.445 92.261c-6.465 3.858-13.021 9.101-20.105 12.973-7.48 4.088-15.532 6.662-24.598 4.927-33.702-6.451-46.811.488-53.24 5.372-1.886 1.432-4.859 2.039-8.395 1.996-4.564-.055-10.161-1.098-15.09-1.865-3.052-.475-5.828-.849-7.863-.733-.432.025-.823.072-1.164.156-.219.053-.417.079-.531.202-.66.712-1.724.875-2.566.391-.842-.483-1.238-1.484-.956-2.413 1.846-6.068 7.492-9.762 19.987-7.984 10.586 1.506 29.713-3.482 33.262-5.092 3.865-1.753 17.956-5.855 25.015-4.483 6.416 1.247 20.358.337 25.955-1.914 6.047-2.432 24.658-5.786 28.705-5.468.275.022.53.049.769.078.884.108 1.602.766 1.786 1.638.184.871-.207 1.763-.971 2.219zm-127.904 18.504c2.035.062 4.486.373 7.116.782 4.738.737 10.114 1.763 14.5 1.816 2.433.029 4.527-.163 5.825-1.149 1.93-1.466 4.424-3.141 7.816-4.636-7.418 1.531-16.295 2.707-22.461 1.83-6.2-.882-10.312-.388-12.796 1.357zm48.196-6.704c8.533-1.186 20.041-1.007 35.788 2.007 8.05 1.541 15.176-.861 21.817-4.491 4.552-2.487 8.882-5.548 13.111-8.437-6.72 1.017-15.917 2.982-19.742 4.52-6.104 2.455-21.307 3.499-28.305 2.138-6.356-1.235-19.018 2.609-22.498 4.188-.054.024-.111.049-.171.075zm136.655-23.859c-3.001 3.008-6.601 6.968-10.011 9.499-2.761 2.049-5.496 3.129-7.786 2.759-7.032-1.138-17.603-5.461-26.082-5.01-.959.051-1.829-.561-2.105-1.48-.277-.92.11-1.909.938-2.396 10.091-5.938 32.416-7.42 43.663-6.925.825.037 1.55.557 1.85 1.326.299.769.116 1.643-.467 2.227zm-6.328.517c-8.446.016-20.059.885-28.837 3.349 6.484 1.224 13.105 3.481 18.034 4.279 1.399.226 2.95-.74 4.636-1.992 2.051-1.522 4.167-3.593 6.167-5.636z"/></g></svg>