<svg id="Layer_1" enable-background="new 0 0 140 140" height="512" viewBox="0 0 140 140" width="512" xmlns="http://www.w3.org/2000/svg"><g id="Security_Alert"><g><g><g><g><g><g><g><g><g><g><g><g><g><g><g><g><path d="m116.2663498 77.7565002c0 .3000488-.2000122.6000366-.5800171.8200073l-58.6400146 33.8600465c-.7600098.4299927-2.0200195.4399414-2.7999878 0l-35.830019-20.8300171c-.3800049-.2200317-.5700073-.5100098-.5700073-.8099976l-.0100098-1.5599976c0-.2999878.2000122-.5900269.5800171-.8099976l58.6400146-33.8699951c.7600098-.4400024 2.039978-.4400024 2.7999878 0l35.8300171 20.8199463c.3999634.2300415.5899658.5400391.5700073.8500366z" fill="#dedffb"/><g><g><g><path d="m17.8359489 89.2336197.0109634 1.5643768c0 .2957153.1861992.5914917.5696278.810585l35.8304291 20.8234863c.7776909.4490891 2.0374222.438118 2.8042145 0l58.6365166-33.8587265c.3833618-.2190933.5805893-.514801.5805893-.8215485l-.0109634-1.5643768c0 .3067398-.186264.6025162-.5805969.8215485l-58.6365148 33.8587265c-.7667885.438118-2.0265236.4490814-2.8042107-.0109634l-35.8304271-20.8125305c-.3833618-.2190857-.5696278-.514801-.5696278-.8105774z" fill="#dedffb"/></g></g></g><g><g><g><path d="m115.6750412 77.0129852-58.6327667 33.8498611c-.7681541.4533997-2.0274467.4533997-2.8082047 0l-35.8269558-20.8161086c-.7681522-.453331-.7555466-1.1837387.0126038-1.6245422l58.6327744-33.862381c.7681503-.4407997 2.0400467-.4407997 2.8082809 0l35.8268738 20.8161087c.7807598.4533233.7556209 1.1963424-.0126057 1.637062z" fill="#f3f1fc"/></g></g></g><g><path d="m77.2363205 54.4565125-58.6400166 33.8500366c-.4099731.25-.8200073.2299805-1.1300049.0199585l-1.1099854-.4500122c-.3499756-.1399536-.6099854-.5-.6799927-1.0299683l-5.7199706-44.1900024c-.1200562-.9500122.4199829-2.0900269 1.1900024-2.539978l58.6299458-33.8500362c.3400269-.1900024.6800537-.2299805.960022-.1199951l1.3300171.5300293c-.1900024-.0700073-.4100342-.0500488-.6400146.0100098.6300049-.1600342 1.1799927.2399902 1.2800293 1.039978l5.7199707 44.1900024c.1199951.9500117-.419983 2.0999751-1.1900025 2.5399776z" fill="#111d33"/><g><g><g><g><path d="m9.9596233 42.6580811 5.7180023 44.1882401c.0657206.5258331.3286057.8873291.6791401 1.0296707l1.3209686.5299759c-.3505344-.1424103-.6024551-.5039063-.6791401-1.0296783l-5.7179356-44.1883049c-.1204777-.9529877.416256-2.0921745 1.1830463-2.5413246l58.6365148-33.8476988c.3395691-.1971631.6791382-.2300572.9639511-.1205444l-1.3319321-.5299058c-.2738495-.1095128-.6134186-.0766859-.9529877.1204772l-58.6365813 33.8477644c-.7667904.4490814-1.303524 1.588337-1.1830464 2.5413285z" fill="#111d33"/></g></g></g></g><g><g><g><path d="m12.4338675 40.6759491c-.7693262.4441719-1.3059034 1.58284-1.1827555 2.5340004l5.7214451 44.1906166c.1231499.9511719.8594303 1.3549423 1.6287556.9107666l58.6354218-33.8531761c.7693024-.4441566 1.3128815-1.586853 1.1897278-2.5380173l-5.7214452-44.1906223c-.1231461-.9511585-.8664246-1.3509035-1.6357269-.9067464z" fill="#4c5c75"/></g></g></g><g><g><g><path d="m76.2524948 52.2032738c.0047836.0908127-.0860519.3202934-.1673508.3968658l-57.1384506 32.9797554-5.522151-42.6567383c-.004756-.0908127.0812988-.3202934.1577835-.3871765l57.1528349-32.9893303z" fill="#f9cf6b"/></g></g></g></g></g></g><g><g><g><g><path d="m89.5787659 88.5537567-9.852066-5.7379532c-.4021378-.2320328-.989769-.2320328-1.3610458 0l-15.2652817 8.800354c-.3866615.2165527-.3866615.5722504 0 .7888031l.01548.0153885 15.2498016-8.8003616c.3712769-.2319412.9589081-.2319412 1.3610458 0l9.8366776 5.7225723h.0153885c.3866577-.2164612.3866577-.5722504 0-.7888031z" fill="#dedffb"/></g></g></g><g><g><g><path d="m78.365654 83.6199875-15.2498016 8.8003616 9.8365784 5.7225647c.4021378.2320328 1.0053482.2320328 1.4074936 0l15.2034531-8.800354-9.8366776-5.7225723c-.4021378-.2319412-.9897691-.2319412-1.3610459 0z" fill="#fff"/></g></g></g></g></g></g><g><g><g><g enable-background="new"><g><g><g><g><path d="m54.825222 73.2369003-1.1929283-.6933441 2.7684402-1.5981293 1.1939393.6933442z" fill="#4c5c75"/></g></g><g><g><path d="m54.8576851 90.7976303-2.7497597-1.5981293 2.7635193-1.5961532 2.7507439 1.5991058z" fill="#4c5c75"/></g></g><g><g><path d="m32.1101723 86.3513947-1.192955-.6933442 2.7635421-1.5951767 1.1929283.6933518z" fill="#4c5c75"/></g></g><g><g><path d="m44.081871 81.3337631 2.7507439 1.5981293-2.7635422 1.5961609-2.750721-1.5991135z" fill="#4c5c75"/></g></g><g><g><path d="m55.0425644 86.5205536-2.7458229-1.5951767 2.7694244-1.5981293 2.7448387 1.5951767z" fill="#4c5c75"/></g></g><g><g><path d="m58.6145096 71.0496826-1.1929512-.6943359 2.7684631-1.5981217 1.1929283.6933442z" fill="#4c5c75"/></g></g><g><g><path d="m55.444809 74.7730865 2.7507476 1.5991059-2.7684402 1.5981293-2.7507706-1.5981293z" fill="#4c5c75"/></g></g><g><g><path d="m53.837822 91.3867264-10.3420945 5.9706039-2.7507438-1.5981293 10.3420944-5.9706039z" fill="#4c5c75"/></g></g><g><g><path d="m58.6420517 88.612381-2.7497597-1.5981293 2.7684403-1.5981293 2.7507438 1.5981293z" fill="#4c5c75"/></g></g><g><g><path d="m62.4313393 86.4251556-2.7507439-1.5981292 2.7644997-1.5961533 2.7497596 1.5981217z" fill="#4c5c75"/></g></g><g><g><path d="m63.0184631 70.4005814 2.7507477 1.5991363-2.7694282 1.5981293-2.7497597-1.5981293z" fill="#4c5c75"/></g></g><g><g><path d="m43.8743477 88.8041458-2.7497597-1.5981216 2.7684631-1.5981293 2.7507439 1.5981293z" fill="#4c5c75"/></g></g><g><g><path d="m47.2574768 77.6064224-1.1939125-.6933212 2.7635155-1.5951996 1.1939163.6933441z" fill="#4c5c75"/></g></g><g><g><path d="m58.4660072 89.6922226 2.7507439 1.5991058-2.7635155 1.5951767-2.7507705-1.5981292z" fill="#4c5c75"/></g></g><g><g><path d="m59.2291756 72.5887909 2.7507438 1.5981293-2.7684402 1.5991363-2.7507668-1.5991363z" fill="#4c5c75"/></g></g><g><g><path d="m66.1881638 66.6772079-1.1939393-.6943359 2.7694474-1.5981216 1.1929321.6933441z" fill="#4c5c75"/></g></g><g><g><path d="m66.4005814 79.9638062-2.7458191-1.5961609 2.7684402-1.5981293 2.745842 1.5951538z" fill="#4c5c75"/></g></g><g><g><path d="m66.2157059 84.2399063-2.7507477-1.5981293 2.7684402-1.5981292 2.7507477 1.5981292z" fill="#4c5c75"/></g></g><g><g><path d="m66.6130066 72.490448 2.7507629 1.5981216-2.7684631 1.5981293-2.7507439-1.5981293z" fill="#4c5c75"/></g></g><g><g><path d="m62.3988762 68.8644257-1.192955-.6933442 2.7684669-1.5981292 1.192955.6933441z" fill="#4c5c75"/></g></g><g><g><path d="m66.8028259 68.2163162 2.7497635 1.5981293-2.7684402 1.5991135-2.7507706-1.5991135z" fill="#4c5c75"/></g></g><g><g><path d="m35.8945351 84.1671066-1.1929512-.6933212 2.7684631-1.5991135 1.192955.6933442z" fill="#4c5c75"/></g></g><g><g><path d="m39.2599449 87.3043671-6.552803 3.7833786-2.7507706-1.5981293 6.5528297-3.7833786z" fill="#4c5c75"/></g></g><g><g><path d="m51.2582016 88.7058029-2.7458229-1.5961609 2.7644997-1.5951767 2.7458496 1.5951767z" fill="#4c5c75"/></g></g><g><g><path d="m51.6555214 76.9612885 2.7507477 1.5981292-2.7635193 1.5961609-2.7507706-1.5991135z" fill="#4c5c75"/></g></g><g><g><path d="m47.6774178 83.4226379 2.7497596 1.5981293-2.7635421 1.5961609-2.7507439-1.5991135z" fill="#4c5c75"/></g></g><g><g><path d="m54.6816406 91.8774719 2.7507439 1.5981293-2.7684631 1.5991135-2.750721-1.5991135z" fill="#4c5c75"/></g></g><g><g><path d="m37.3402214 89.3902893 2.7635422-1.5951767 2.7507438 1.5981293-2.7635383 1.5961609z" fill="#4c5c75"/></g></g><g><g><path d="m43.4681892 79.794632-1.1939392-.6933213 2.768467-1.5991134 1.1939125.6933441z" fill="#4c5c75"/></g></g><g><g><path d="m47.4698982 90.8930283-2.7458229-1.5951767 2.7684403-1.5981293 2.7458229 1.5951767z" fill="#4c5c75"/></g></g><g><g><path d="m51.4480247 84.4316711-2.7507667-1.5981216 2.7684631-1.5981293 2.7507439 1.5981293z" fill="#4c5c75"/></g></g><g><g><path d="m62.6162186 82.1480713-2.7458229-1.595192 2.7684402-1.5981292 2.7458458 1.5951995z" fill="#4c5c75"/></g></g><g><g><path d="m51.0408592 75.4221573-1.1929321-.6933212 2.7684402-1.5991364 1.1939164.6933441z" fill="#4c5c75"/></g></g><g><g><path d="m55.2500877 79.0501633 2.7507439 1.5981292-2.7635422 1.5961609-2.7507438-1.5991134z" fill="#4c5c75"/></g></g><g><g><path d="m58.831852 84.3333282-2.7458229-1.5961608 2.7635192-1.5951767 2.7458458 1.5951767z" fill="#4c5c75"/></g></g><g><g><path d="m62.8237381 74.6776886 2.7507477 1.5981293-2.768467 1.5990905-2.7507438-1.5990905z" fill="#4c5c75"/></g></g><g><g><path d="m50.8923531 94.0646973 2.7507438 1.5991058-6.552803 3.7833862-2.7507706-1.5991134z" fill="#4c5c75"/></g></g><g><g><path d="m39.6838226 81.9788971-1.1939354-.6933212 2.7645264-1.5951767 1.1929512.6933517z" fill="#4c5c75"/></g></g><g><g><path d="m59.0393753 76.8629456 2.7507439 1.5981292-2.7684632 1.5981217-2.7507476-1.5981217z" fill="#4c5c75"/></g></g><g><g><path d="m39.0701447 91.5784988-2.7684632 1.5981217-2.7507477-1.5981217 2.768467-1.5981292z" fill="#4c5c75"/></g></g><g><g><path d="m46.4490738 91.4821167-6.5528298 3.7833862-2.7458229-1.5951767 6.5528298-3.7833862z" fill="#4c5c75"/></g></g><g><g><path d="m31.090332 86.9404907-2.7694492 1.5991135-1.1929283-.6933441 2.7684402-1.5991135z" fill="#4c5c75"/></g></g><g><g><path d="m40.2984886 83.5180359 2.7497597 1.5991058-2.7684403 1.5981293-2.7507667-1.5981293z" fill="#4c5c75"/></g></g><g><g><path d="m47.8711586 79.1455612 2.7507439 1.5991059-2.7684632 1.5981292-2.7507209-1.5981292z" fill="#4c5c75"/></g></g><g><g><path d="m70.0000687 82.0556335-2.7507401-1.5991363 2.7684403-1.5981293 2.75074 1.5981293z" fill="#4c5c75"/></g></g><g><g><path d="m70.1898727 77.7755966-2.7458267-1.5951919 2.7684403-1.5981293 2.7458267 1.5951996z" fill="#4c5c75"/></g></g><g><g><path d="m73.7618179 62.3047295-1.1939163-.6943283 2.7684403-1.5981293 1.1939163.6933479z" fill="#4c5c75"/></g></g><g><g><path d="m69.9725266 64.491951-1.1939316-.6933441 2.7694473-1.5981293 1.1929245.6933479z" fill="#4c5c75"/></g></g><g><g><path d="m70.3973923 70.305191 2.7507477 1.5981293-2.769455 1.5991135-2.7497559-1.5991135z" fill="#4c5c75"/></g></g><g><g><path d="m74.3754959 63.8438416 2.7507477 1.5981292-2.7684631 1.5991135-2.7507248-1.5991135z" fill="#4c5c75"/></g></g><g><g><path d="m70.5911331 66.0281067 2.7507401 1.5991135-2.7684632 1.5981292-2.7507171-1.5981292z" fill="#4c5c75"/></g></g><g><g><path d="m73.78936 79.8674316-2.7507705-1.5981292 2.7684631-1.5981293 2.7507477 1.5981293z" fill="#4c5c75"/></g></g><g><g><path d="m73.9742355 75.5913086-2.7458191-1.5961609 2.7684403-1.5981293 2.7458191 1.5951767z" fill="#4c5c75"/></g></g><g><g><path d="m74.1679764 71.3142242-2.7507477-1.5981292 2.769455-1.5981217 2.7497558 1.5981217z" fill="#4c5c75"/></g></g><g><g><path d="m77.5461807 60.1194763-1.1939087-.6933441 2.7684403-1.5981293 1.1939087.693348z" fill="#4c5c75"/></g></g><g><g><path d="m77.5737228 77.683136-2.7507476-1.5991135 2.7684402-1.5981293 2.7507477 1.5981293z" fill="#4c5c75"/></g></g><g><g><path d="m77.9700623 65.9327164 2.75074 1.5981292-2.7684402 1.5991135-2.750763-1.5991135z" fill="#4c5c75"/></g></g><g><g><path d="m77.7625427 73.4030991-2.7458267-1.5951691 2.7694244-1.5981293 2.7458497 1.5951691z" fill="#4c5c75"/></g></g><g><g><path d="m80.9155273 63.2547493-2.7684402 1.5981255-2.7507629-1.5981255 2.7684631-1.5991135z" fill="#4c5c75"/></g></g><g><g><path d="m88.7596359 72.2022934 2.7507401 1.5991135-2.7684403 1.5981292-2.7507629-1.5981292z" fill="#4c5c75"/></g></g><g><g><path d="m78.9908829 65.3436203 6.5528335-3.7833786 2.7507401 1.5981293-6.5528259 3.7833786z" fill="#4c5c75"/></g></g><g><g><path d="m81.1859818 76.5747681 2.7507476 1.5991134-21.699131 12.5283585-2.7507667-1.5991135z" fill="#4c5c75"/></g></g><g><g><path d="m81.5705109 68.0245438 2.7448349 1.5951767-2.7684403 1.5991134-2.7458191-1.5961609z" fill="#4c5c75"/></g></g><g><g><path d="m86.374733 65.2501984 2.7684402-1.5981255 2.7458496 1.5951729-2.7684631 1.5991135z" fill="#4c5c75"/></g></g><g><g><path d="m99.083046 69.4289322-6.5528031 3.782402-2.7497864-1.5981292 6.5528336-3.7833863z" fill="#4c5c75"/></g></g><g><g><path d="m81.3630066 75.4949341-2.7507401-1.5981293 2.7684403-1.5981293 2.75074 1.5981293z" fill="#4c5c75"/></g></g><g><g><path d="m84.9752731 74.3875504 2.7507401 1.5981292-2.7684403 1.5991135-2.7507705-1.5991135z" fill="#4c5c75"/></g></g><g><g><path d="m88.9356766 71.1224594-2.7507401-1.5981293 2.7694245-1.5981292 2.7497558 1.5981292z" fill="#4c5c75"/></g></g><g><g><path d="m79.180687 61.0694962 2.7684631-1.5981293 2.7507477 1.5981293-2.7684403 1.5981254z" fill="#4c5c75"/></g></g><g><g><path d="m89.9692993 67.3390732 2.7684403-1.5981293 2.7507476 1.5981293-2.7684402 1.5991134z" fill="#4c5c75"/></g></g><g><g><path d="m85.1463928 73.3106613-2.7497635-1.5991134 2.7684403-1.5981293 2.7507477 1.5981293z" fill="#4c5c75"/></g></g><g><g><path d="m85.3361893 69.0306244-2.7458191-1.5951691 2.7684402-1.5981293 2.7458496 1.5951691z" fill="#4c5c75"/></g></g></g></g></g></g></g></g></g><g><g><g enable-background="new"><g><g><g><path d="m19.718626 45.7597656-.88344-.513401 55.5576363-32.0762148.8834381.5133991z" fill="#dbdbdb"/></g></g></g><path d="m75.2762375 13.6835642-55.5576191 32.0761709-.8834229-.5133667.1080323 36.7172241.8834228.5134278 55.5576801-32.0762329z" fill="#d4daea"/><g><g><g><path d="m19.826664 82.4770126-.88344-.5133972-.108038-36.7172508.88344.513401z" fill="#d4daea"/></g></g></g><g><g><g><path d="m75.2762604 13.6835489.1080398 36.7172461-55.5576362 32.0762176-.108038-36.717247z" fill="#f1f6fa"/></g></g></g></g><g><g><g><g><path d="m75.2762985 13.6865549-55.5599994 32.0699453-.8800049-.5099487-.0099488-4.1200561 55.5499897-32.0799551.8900147.5199585z" fill="#497bfe"/></g></g></g></g><g enable-background="new"><g><g><g><path d="m19.718626 45.7597656-.88344-.513401-.0116787-4.1197968.8834381.5133973z" fill="#497bfe"/></g></g></g><g><g><g><path d="m19.7069454 41.6399651-.8834381-.5133973 55.5576344-32.0762167.8834381.5133992z" fill="#57b3fe"/></g></g></g><g><g><g><path d="m75.2645798 9.5637503.0116806 4.1197986-55.5576344 32.0762167-.0116806-4.1198005z" fill="#5094ff"/></g></g></g></g></g></g></g><g><g><g><g><path d="m73.1923141 12.8015366.6165009.3569202-.3244934.5597143-.6164475-.3488006-.6246261 1.0626411-.3244934-.1866045.6165085-1.0626411-.6165085-.3569203.3244934-.5597143.6165008.3488007.6165085-1.0707112.3325577.1865549z" fill="#f1f6fa"/></g></g><g><g><path d="m67.3414764 15.0259371.0065384 2.3030729 2.7190094-1.5698242-.0065384-2.3030729zm.4659424 1.5073423-.0035172-1.2438478 1.7971268-1.0375385.0035629 1.2437983z" fill="#f1f6fa"/></g></g><g><g><path d="m63.0427399 19.2961063.0014877.5296116 2.5791931-1.4890728-.0014877-.5296612z" fill="#f1f6fa"/></g></g></g><g><g><g><g><path d="m22.140173 41.4117279c.5414753-.3126221.9774952-.0641365.9792595.5580788.0017395.6139984-.431448 1.3643188-.9729233 1.6769409-.5343513.308506-.9703712.0600204-.9721107-.5539742-.0017644-.6222152.4314231-1.3725395.9657745-1.6810455z" fill="#fff"/></g></g></g><g><g><g><path d="m25.5885105 39.420826c.5343513-.308506.9703712-.0600204.9721355.5621948.0017395.6139984-.431448 1.3643188-.9657993 1.6728287-.5414753.3126183-.9774952.0641327-.9792347-.5498619-.0017643-.6222153.4314232-1.3725396.9728985-1.6851616z" fill="#fff"/></g></g></g><g><g><g><path d="m29.029726 37.4340401c.5343494-.308506.9703693-.0600204.9721336.5621948.0017395.6139984-.431448 1.3643188-.9657974 1.6728287-.5414772.3126183-.9774971.0641365-.9792366-.5498619-.0017643-.6222153.4314232-1.3725396.9729004-1.6851616z" fill="#fff"/></g></g></g></g></g></g></g></g></g></g></g></g></g><g><g><g><g><g><g><path d="m24.3963032 51.9729118c.3630047-.2096138.6460934-.5322342.8422546-.9558563.1927567-.4217033.2883759-.8947067.2869205-1.4112053-.0014877-.5203972-.099453-.8816872-.2939606-1.075798-.1979465-.2000961-.481926-.1953011-.8449326.0142784-.3699474.2135811-.6530018.5361633-.845726.9618378-.1892872.4156876-.2883759.8907394-.2869205 1.411171.0014877.5164642.1029224.8757019.2939606 1.075798.1944771.1981124.4784565.1933174.848404-.0202256zm.5007972-2.919487c.1215973.148632.1812553.4206161.1823463.8099327.0011234.3893471-.0567837.7291832-.1771564 1.0175591-.1204071.2844086-.2860622.4835129-.5073757.6112556-.2247181.1297607-.3909683.122261-.5091286-.0243912-.1216297-.148632-.1847248-.4186325-.1858158-.8079453-.0011234-.3893509.0602531-.7312012.1806278-1.0195465.1169701-.2824249.2826233-.4815292.5073414-.6112556.2212811-.127777.3875313-.1202735.509161.0243912z" fill="#4c5c75"/></g></g><g><g><path d="m27.8437862 49.6958847c0 .0704002-.0216484.1353798-.0649796.2057762-.0379105.0704002-.0866604.1191521-.1462193.1570282l-1.250906.7202301c-.0595589.0324898-.1083107.0379105-.1516075.0162621-.0379105-.0216827-.0595932-.0649796-.0595932-.1353798 0-.0649796.0216827-.1353798.0595932-.20578.0432968-.0758209.0920486-.1245728.1516075-.1570625l.4386292-.2599182-.0054207-2.2364693-.3573875.4061356c-.0433311.0433311-.0758209.0758209-.1083107.0974693-.0595589.0324898-.1083107.0379105-.1516075.0162621-.0379105-.0216827-.0595932-.0704002-.0595932-.1408005 0-.10289.0433311-.20578.1245728-.2978287l.5469055-.6552467c.0433311-.0487175.0920811-.086628.1299915-.1083107l.086628-.0487175c.0649796-.0379105.1191521-.0433311.1624489-.0162621.0487518.0270691.0704002.0758209.0704002.1462212l.0108414 2.5830498.3628082-.2111969c.0595589-.0324898.10289-.0379105.1462193-.0108414.0433311.0216788.0649795.0704002.0649795.1353797z" fill="#c9cee2"/></g></g><g><g><path d="m29.4752159 49.0405693c.3665104-.2115974.6495647-.5341835.8457584-.9578362.1892872-.419693.2883434-.8947105.2868881-1.4111748-.0014877-.5204315-.1029224-.8797035-.2939281-1.0758324-.197979-.2000923-.481926-.1953011-.8484364.0162964-.3664761.2115974-.6495304.5341492-.8422546.9598198-.1927567.4177055-.2883759.8907433-.2869205 1.411171.0014877.516468.0994854.8777199.2939606 1.0758324.1945095.1980782.4784565.1933174.8449325-.0182762zm.5007992-2.919487c.1216297.1486359.1847572.4186325.1858482.8079491.001091.3893471-.0602531.7312012-.1806602 1.0195427-.1169357.2824287-.2826233.4815292-.5073414.61129-.2212811.1277466-.3875313.1202774-.5056915-.0264053-.1216297-.1486359-.1847248-.418602-.1858158-.8079491-.0011234-.3893166.0602531-.7311668.1806602-1.0195427.1169376-.2823944.2825909-.4815292.5038719-.6092758.2247181-.1297265.3909683-.1222573.5091286.0243911z" fill="#c9cee2"/></g></g><g><g><path d="m32.9232292 46.7608643c0 .0704002-.0162621.1353798-.0595589.20578-.0433311.0704002-.092083.1245384-.1516418.1570282l-1.2509041.7202263c-.0541382.0324898-.1083107.0433311-.1462212.0216522-.0432968-.0270729-.0595589-.0704002-.0595589-.1408005 0-.0649796.0162621-.1353798.0595589-.2057495.0379105-.0703964.0866623-.1245689.1462212-.1570587l.4440479-.2544975-.0054207-2.2418938-.3573875.4061394c-.0433292.0487175-.0812397.0812416-.1083088.0974693-.0649796.0324898-.1137314.0433311-.1570625.0216484-.0378761-.0270691-.0595589-.0757866-.0595589-.1461868 0-.10289.0433311-.20578.1245728-.2978287l.5523243-.6552505c.0433311-.0487518.0866623-.0812416.129961-.1083107l.0812416-.0487175c.0649796-.0379105.1245384-.0433311.1678658-.0162621.0433311.0270691.0704002.0758209.0704002.1462212l.0054207 2.5830193.3628082-.20578c.0541382-.0378761.1083107-.0432968.1516418-.0162277.0378762.0216483.0595589.0704001.0595589.1353797z" fill="#c9cee2"/></g></g><g><g><path d="m34.5576324 46.1062431c.3630066-.2095795.6495323-.5341797.8422546-.9558525.1927261-.4216728.2883759-.8947105.2869225-1.4111748-.0014877-.5204315-.0994873-.8816833-.2939606-1.075798-.1945114-.2021103-.481926-.1953354-.8449326.0142784-.3665085.2115974-.6530342.5361633-.8457603.9618378-.1892853.4156914-.2849045.8887253-.2834167 1.4091568.0014534.5164642.099453.8777199.290493 1.0778122.1944733.1981125.4818917.1913376.8484001-.0202599zm.5007668-2.9194526c.1216278.1486359.1812859.4206161.1823769.8099327.0011253.3893471-.0567818.7291832-.1771889 1.0175591-.1203728.2843781-.2860603.4835129-.507309.6112595-.2213135.1277428-.3875313.1202736-.5091591-.024395-.1216316-.148632-.1847267-.4186325-.1858521-.8079796-.001091-.3893166.0602875-.7311668.1806602-1.0195427.1204071-.2843781.2860641-.4834785.5073433-.6112595.2212831-.1277428.3875314-.1202736.5091287.0244255z" fill="#c9cee2"/></g></g><g><g><path d="m37.0988083 44.63908c.3630409-.2095795.6460953-.532196.842289-.9558525.1927567-.4216728.2883415-.8946762.2868881-1.4111748-.0014877-.5203972-.099453-.8816833-.2939301-1.075798-.197979-.2001266-.481926-.1953011-.8449631.0142784-.3699493.2135811-.6530037.5361671-.845726.9618378-.1892853.4156914-.2849045.8887253-.2834511 1.4091568.0014877.5164642.099453.8777199.2905235 1.0778122.1944772.1981125.4784242.1933212.8483697-.0202599zm.5007973-2.9194488c.1216316.148632.1812897.4206123.1823807.8099289.001091.3893471-.0568161.7291832-.1772232 1.0175591-.1203728.2843781-.2860298.4835129-.507309.6112595-.2247505.1297607-.3909683.1222572-.5091591-.0243912-.1216316-.1486359-.1846962-.4186325-.1858177-.8079834-.001091-.3893127.0602531-.7311668.1806602-1.0195084.1169357-.2824287.2825928-.4815292.5073433-.61129.2212448-.1277466.3875313-.1202774.5091248.0244255z" fill="#c9cee2"/></g></g><g><g><path d="m39.6400185 43.171917c.3630066-.2095795.6460915-.532196.8422546-.9558182.1892853-.4196892.2883759-.8947411.2869225-1.4112053-.0014877-.520401-.1029587-.8796692-.2939644-1.075798-.1979446-.2001305-.481926-.1953049-.8449326.0142784-.3699455.2135773-.6529999.5361633-.8457222.961834-.1927605.417675-.2883759.8907433-.2869225 1.4111404.0014877.5164986.099453.8777199.2939606 1.0758324.1944771.1981086.4784546.1933517.848404-.0202637zm.4973259-2.9174652c.1216316.148632.1847267.4186287.1858177.8079453.0011253.3893471-.0602531.7312012-.1806259 1.0195427-.1169395.2823944-.2826271.4815292-.5039063.6092758-.22472.1297607-.3909683.1222572-.5091286-.0243912-.1216278-.1486359-.1847267-.4186325-.1858177-.8079834-.0011215-.3893127.0602531-.7311668.1806297-1.0195084.1169701-.2824287.282589-.4815292.5073433-.61129.2212792-.1277466.3875275-.1202431.5056878.0264092z" fill="#c9cee2"/></g></g><g><g><path d="m43.0875015 40.8962135c0 .0649796-.0216484.1353798-.0649796.20578-.0378761.0704002-.086628.1191521-.1461868.1516418l-1.2509041.7256165c-.0595932.032486-.1083107.0379066-.1516418.0162582-.0379105-.0270691-.0595589-.0704002-.0595589-.1353798 0-.0704002.0216484-.1407967.0595589-.2111969.0379105-.0649796.0920486-.1191521.1516418-.1570282l.4386253-.2545319-.0054207-2.2418938-.3574181.4115601c-.0432968.0433311-.0757866.0758209-.1082764.0920486-.0595932.0379105-.1137314.0433311-.1516418.0216827-.0433311-.0216827-.0595589-.0704002-.0595589-.1462212 0-.10289.0433311-.20578.1245384-.2978287l.5469398-.6498299c.0433273-.0487175.0920486-.086628.1299591-.1083107l.0866585-.0541382c.0649796-.0324898.1191177-.0379105.1624489-.0108414.0487175.0216827.0704002.0758209.0704002.1462212l.010807 2.5830536.3628426-.2112007c.0595589-.0324898.10289-.0379105.1461868-.0162621.0433314.0271038.0649798.0704006.0649798.1408008z" fill="#c9cee2"/></g></g><g><g><path d="m44.7189293 40.2396088c.3665123-.2115974.6495667-.5341797.842289-.9558525.1927567-.4216728.2883759-.8947067.2868881-1.4111748-.0014534-.5204277-.099453-.8816833-.2939262-1.0757942-.1945114-.2021141-.4784546-.197319-.8449669.0142746-.3664742.2115669-.6529999.5361671-.845726.9618034-.1892853.4157257-.2849045.8887596-.2834511 1.4091911.0014877.5164642.099453.8777199.2905273 1.0778122.1979103.1960983.4818916.1913376.8483658-.0202598zm.5008011-2.9194832c.1216278.148632.1847267.4186325.1858139.8079796.0011253.3893166-.0602531.7311707-.1806259 1.0195122-.1169357.2824249-.2825928.4815292-.5073433.61129-.2212791.1277428-.3875313.1202431-.5091591-.0244255-.1215973-.148632-.1812553-.4205818-.1823463-.8099289-.0011253-.3893166.0568161-.729187.1771889-1.0175629.1204071-.2843781.2860641-.4835129.5073433-.6112556.2247199-.1297608.3909682-.1222611.5091285.0243911z" fill="#c9cee2"/></g></g><g><g><path d="m47.4732475 38.6392555c.3630066-.2095833.6495323-.5341835.8422585-.9558563.1927567-.4216728.288372-.8947067.2869186-1.411171-.0014877-.5204315-.099453-.8816872-.2939606-1.075798-.1945076-.2021103-.481926-.1953354-.8449326.0142784-.3664742.2115631-.6529999.5361633-.845726.9618034-.1892853.4156876-.2849045.8887558-.2834511 1.4091873.0014877.5164642.099453.8777199.290493 1.077816.1944734.1981126.4819261.1913339.8484002-.0202598zm.5008011-2.919487c.1216278.1486359.1812553.4206505.1823463.8099632.0011215.3893509-.0567856.729187-.1771584 1.0175285-.1204071.2844086-.2860603.4835129-.5073738.61129-.2212486.1277466-.3875008.1202431-.5091286-.0244255-.1216316-.148632-.1847267-.4185982-.1858177-.8079453-.0011215-.3893166.0602531-.7311707.1806602-1.0195465.1204071-.2844086.2860641-.4835129.507309-.6112556.2212831-.1277465.3875314-.1202735.509163.0243912z" fill="#4c5c75"/></g></g><g><g><path d="m50.0144234 37.1720924c.3630409-.2095833.6460953-.5321999.842289-.9558563.1927567-.4216728.2883759-.8947067.2868881-1.411171-.0014534-.5203972-.099453-.8816872-.2939262-1.075798-.197979-.2001266-.481926-.1953354-.8449669.0142784-.369915.2135811-.6529694.536129-.845726.961834-.1892853.4156914-.2849045.8887291-.2834167 1.4091568.0014534.516468.099453.8777199.2904892 1.077816.1945113.1980782.4784583.1933174.8483695-.0202599zm.5008011-2.919487c.1216278.1486359.1812553.4206505.1823769.8099632.001091.3893509-.0567818.729187-.1771889 1.0175629-.1204071.2843742-.2860603.4834785-.5073433.6112556-.2247162.1297302-.3909683.122261-.5091286-.0244255-.1216278-.148632-.1847229-.4185982-.1858482-.8079453-.001091-.3893166.0602875-.7311707.1806602-1.0195465.1169357-.2823906.2826233-.4814949.5073433-.6112556.2212791-.1277427.3875313-.1202735.5091286.0243912z" fill="#c9cee2"/></g></g><g><g><path d="m24.4121017 57.5507393c.363039-.2096138.6460934-.5321999.8422871-.9558563.1927242-.4216728.2883759-.8947067.2868881-1.411171-.0014534-.5204315-.099453-.8816872-.2939606-1.075798-.1979465-.2000961-.4818935-.1953354-.8449326.0142441-.3699131.2135811-.6530018.536232-.845726.9618683-.1892872.4156914-.2883759.8907089-.2868881 1.4111404.0014553.5164986.1029224.8757362.2939625 1.0758324.1944752.1981124.4784546.1933174.8483696-.0202599zm.5007973-2.919487c.1216297.1486664.1812553.4206161.1823788.8099632.001091.3893166-.0568161.729187-.1771889 1.0175285-.1204071.2844086-.2860622.4835129-.5073433.61129-.2247181.1297302-.3909683.122261-.509161-.0244255-.1215973-.148632-.1846924-.4185982-.1858158-.8079453-.001091-.3893166.0602856-.7311707.1806602-1.0195122.1169376-.2824249.2825909-.4815292.5073433-.61129.2212811-.1277427.387497-.120243.5091267.0243913z" fill="#c9cee2"/></g></g><g><g><path d="m27.8600159 55.2735138c0 .0704002-.0216503.1408005-.0649796.20578-.0379105.0704002-.0866299.1191483-.1461887.1570587l-1.2509041.7201958c-.0595932.0324898-.1083107.0379105-.1516418.0216827-.0379105-.0270691-.0595589-.0704002-.0595589-.1408005 0-.0649796.0216484-.1353798.0595589-.20578.0433311-.0758209.0920486-.1245384.1462212-.1570282l.4440479-.2599487-.0054207-2.2364731-.35742.4061394c-.0432968.048748-.0757866.0758171-.1082764.0974998-.0650139.0324898-.1083107.0378799-.1516418.0162277-.0379105-.0216484-.0595589-.0704002-.0595589-.1407967 0-.10289.0379105-.20578.1245384-.2978287l.5469379-.6498299c.0433311-.0541382.0920506-.0920486.1299591-.1136971l.0866623-.0487518c.0649796-.0379105.1191177-.0433311.1624489-.0162621.0487175.0271034.0704002.0758209.0704002.1462212l.010807 2.5830536.3628407-.2112007c.0541401-.0324898.10289-.0379105.1461887-.0108414.0433294.0216829.0649797.0704004.0649797.13538z" fill="#c9cee2"/></g></g><g><g><path d="m29.4910469 54.6183968c.366478-.2115974.6495323-.5341492.845726-.9578362.1892872-.4196587.2883434-.8946762.2868881-1.4111748-.0014534-.5204315-.1029224-.8796692-.2939281-1.075798-.197979-.2000923-.481926-.1953354-.848402.0162621-.3665104.2115974-.6495304.534214-.842289.9598541-.1927242.4176712-.2883759.8907089-.2868881 1.4111404.0014553.5164986.099453.8777199.2939625 1.0758286.1944751.1981125.4784221.1933212.8449306-.0182762zm.5007992-2.9194527c.1216297.1486359.1847267.4185982.1858158.8079147.0011253.3893471-.0602531.7312012-.1806602 1.019577-.1169357.2824249-.2825909.4815292-.5073414.61129-.2212486.1277466-.3874989.1202431-.5056572-.0264397-.1216297-.1486359-.1847267-.4185982-.1858501-.8079491-.001091-.3893127.0602531-.7311668.1806602-1.0195122.1169376-.2823906.2825909-.4815292.5038719-.609272.2247181-.1297606.3909683-.1222571.509161.0243913z" fill="#c9cee2"/></g></g><g><g><path d="m32.0322227 53.1512337c.3665085-.2115974.6495628-.5341454.842289-.9558525.1927223-.4216385.2883759-.8946762.2869225-1.4111748-.0014877-.5204315-.0994873-.8816528-.2939644-1.075798-.1945076-.2020416-.4784546-.1973152-.8449631.0142784-.366478.2115974-.6530018.5361977-.845726.9618378-.1892872.4156914-.2849045.8887596-.2834511 1.4091568.0014877.5164986.0994854.8777504.2905235 1.0778122.1979466.1961288.4818936.1913375.8483696-.0202599zm.5007973-2.9194527c.1216316.1486359.1847267.418602.1858521.8079491.001091.3893166-.0602531.7311668-.1806602 1.0195427-.1169357.2823944-.2825928.4815292-.5073433.61129-.2212811.1277466-.3875313.1202774-.5091286-.0244255-.1216297-.148632-.1812878-.4206123-.1823788-.8099632-.0011234-.3893127.0568161-.7291527.1771908-1.0175247.1203728-.2843781.2860622-.4835129.5073433-.6112595.2247162-.1297608.3909988-.1222573.5091247.0243911z" fill="#c9cee2"/></g></g><g><g><path d="m24.4279327 63.1285667c.3630066-.2095795.6460934-.532196.8422546-.9558525.1927567-.4177094.2883759-.8946762.2869225-1.4111404-.0014877-.5204659-.0994854-.8817177-.2939625-1.0758324-.1979465-.2000923-.481926-.1913033-.8449326.01828-.3699455.2135773-.6529999.532196-.8457241.9578362-.1892872.4156876-.2883759.8907089-.2869225 1.411171.0014877.5164642.1029568.8796692.2939625 1.075798.1944753.1981125.4784547.1933212.8484021-.0202599zm.5007992-2.9154853c.1215954.1446991.1812553.4206161.1823444.8059959.0011253.3893166-.0568142.7291527-.1771889 1.0175285-.1204071.2844086-.2860298.4835129-.5073433.6112595-.2247181.1297607-.3909683.1222572-.5091267-.0243607-.1216297-.1486664-.1847267-.4186668-.1858177-.8079796-.0010891-.3853836.0602531-.7311707.1806278-1.0155792.1169701-.2823944.2826252-.4854965.5073433-.6152573.2212812-.1277427.3875295-.1162757.5091611.0283929z" fill="#c9cee2"/></g></g><g><g><path d="m29.5068455 60.1962585c.3665104-.2115974.6495647-.5341797.8457603-.9578705.1892853-.4156914.2883415-.8946762.2868881-1.4111404-.0014877-.520462-.1029243-.8797035-.2939625-1.0758286-.1979465-.2000618-.4818916-.1913376-.848402.0202599-.3664761.2115974-.6495304.5302124-.8422546.9558525-.1927586.417675-.2883759.8907433-.2869225 1.4112053.0014877.5164337.0994854.8816528.2939625 1.0757675.1945076.1981087.4784546.1933518.8449307-.0182457zm.5007992-2.9155197c.1216297.1446991.1847591.4186325.1858501.8040161.001091.3893127-.0602531.7311668-.1806602 1.0195427-.1169701.2823944-.2826252.4814949-.5073433.6112556-.2212811.1277466-.3875313.1202774-.5056896-.0263748-.1216297-.1486664-.1847267-.4186325-.1858177-.8079453-.0010891-.3854179.0602531-.7312012.1806602-1.0156136.1169376-.2823906.2825928-.4854927.5038738-.6132393.2247181-.1297262.3909664-.1182593.5091267.0283586z" fill="#4c5c75"/></g></g><g><g><path d="m32.0480537 58.7290955c.366478-.2115974.6495323-.5341797.842289-.9558868.1927261-.417675.2883759-.8946762.2868881-1.4111404-.0014534-.5204315-.0994835-.8816833-.2939606-1.075798-.1945076-.202076-.4784546-.1933174-.8449326.01828-.3664761.2115631-.6530342.5321617-.845726.9578362-.1892853.4156876-.2849369.8887253-.2834511 1.4091873.0014553.5164337.0994873.8816528.2904911 1.0777512.1979467.1961248.4819261.1913679.8484021-.0202295zm.5008011-2.9155198c.1216278.1447029.1847229.4186325.1858139.8040161.0011253.3893166-.0602531.7311668-.1806602 1.0195427-.1169014.2823944-.282589.4814987-.5073433.6112595-.2212467.1277428-.3875294.1202736-.5091267-.024395-.1216297-.1486664-.1812534-.4206123-.1823788-.8099289-.001091-.3854141.0568161-.729187.1772232-1.0136299.1203747-.2843399.2860298-.4874763.507309-.6152229.2247505-.1297608.3910027-.11829.5091629.0283584z" fill="#c9cee2"/></g></g><g><g><path d="m24.4340134 65.2818451c-.3699131.2135849-.6529999.5322342-.8457241.95784-.1892872.4156876-.2883759.8907394-.2868881 1.411171.0014534.5165024.1029224.8797073.2939606 1.0758362.1944752.1981049.4784565.1933136.8483696-.0202637.3630066-.2096176.6460934-.532196.842289-.9558182.1927567-.4177094.2883415-.8947449.2868881-1.4112091-.0014877-.5204315-.099453-.8817215-.2939625-1.0758286-.1979466-.2000656-.4818917-.1913071-.8449326.0182724zm-.5007973 2.919487c-.1215973-.1486664-.1846924-.4186325-.1858177-.8079834-.0010891-.3853455.0602551-.731163.1806622-1.0155411.1169357-.2824249.2825909-.4854965.507309-.6152267.2213135-.1277771.3875637-.1163025.509161.0283279.1216297.1446991.1812878.4206467.1823788.8059998.001091.3893433-.0568161.729187-.1771908 1.0175629-.1204071.2843704-.2860622.4834747-.5073414.6112518-.2247182.1297302-.3910028.122261-.5091611-.0243912z" fill="#c9cee2"/></g></g><g><g><path d="m27.8925056 66.4288025c0 .0704041-.0216503.1408005-.0649796.20578-.0432987.0757904-.0866299.1245422-.1461887.1570282l-1.2509041.7202301c-.0595932.0324936-.1083107.0379105-.1516418.0216522-.0379105-.0216522-.0595589-.0704041-.0595589-.1408005 0-.0649796.0216484-.1353836.0595589-.20578.0433311-.0704041.0866623-.1191177.1462212-.1570282l.4440479-.2545013-.0054207-2.24189-.35742.4061356c-.0432968.0487213-.0757866.0758209-.1082764.0974731-.0649796.032486-.1137314.0379105-.1516418.0216446-.0379105-.0270691-.0595589-.0703964-.0595589-.1408005 0-.1082764.0379105-.2111664.1245384-.3032455l.5469379-.6497955c.0433311-.0541725.0920506-.092083.1299591-.1137314l.0866623-.048748c.0649796-.0378799.1191177-.0433006.1624489-.0162315.0487175.0270691.0704002.0758209.0704002.1516075l.0054207 2.5830574.3628063-.2112045c.0595608-.032486.1083107-.0379105.1516094-.0162277.0433294.0216521.0595915.0703963.0649797.1353759z" fill="#c9cee2"/></g></g><g><g><path d="m26.2300739 59.4757004c-.0379105-.0216484-.0595932-.0704002-.0595932-.1408005 0-.10289.0379105-.20578.1245728-.2978287l.5469055-.6498299c.0433311-.0541382.0920811-.0920486.1299915-.1136971l.086628-.0487518c.0649796-.0379105.1191521-.0433311.1624489-.0162277.0487518.0270691.0704002.0757866.0704002.1516075l.0054207 2.5830536.3682289-.2112007c.0541706-.0324898.10289-.0379105.1462193-.0162277.0433311.0216484.0649796.0704002.0649796.1353798 0 .0704002-.0216484.1407661-.0649796.20578-.0379105.0703659-.0866604.1191177-.1462193.1570282l-1.250906.7202263c-.0595589.0324898-.1083107.0378761-.1516075.0216484-.0379105-.0270691-.0595932-.0704002-.0595932-.1408005 0-.0649796.0216827-.1353798.0595932-.2057762.0432968-.0704002.0920486-.1191216.1461868-.1570282l.4440498-.2545319-.0054207-2.2418594-.3573875.4061356c-.0433311.0487213-.0758209.0757904-.1083107.0974693-.0649795.0324898-.1137313.0379105-.1516075.0162316z" fill="#c9cee2"/></g></g><g><g><path d="m29.5129604 62.3495407c-.3665085.2115936-.6495304.5302124-.8422871.9558182-.1927242.4177094-.2883759.8907394-.2868881 1.4112091.0014534.5164642.0994854.8816833.2939281 1.0758286.1945076.198082.4784546.1932831.844965-.0183105.3664761-.2115936.6495304-.5341492.845726-.9578018.1892853-.4156952.2883415-.8947105.2868881-1.4112091-.0014877-.5204277-.1029243-.8796997-.2939281-1.0758286-.1979808-.2000619-.4819259-.1913033-.8484039.0202941zm-.4973278 2.9174652c-.1216297-.1486282-.1847591-.4186325-.1858482-.8079453-.001091-.3853531.0602531-.7312012.1806602-1.0155792.1169357-.2823906.2825909-.4854622.5038719-.613205.2247181-.1297607.3910007-.1183243.509161.0283241.1216297.1446686.1847248.4186325.1858158.8039818.0011234.3893509-.0602531.7311707-.1806602 1.0195465-.1169376.2824249-.2826252.4815292-.5073433.61129-.2212467.127739-.3875313.1202393-.5056572-.0264129z" fill="#c9cee2"/></g></g><g><g><path d="m32.0541382 60.8823776c-.366478.2115631-.6530037.532196-.8457279.9578362-.1892853.4156914-.2849045.8887596-.2834492 1.4091911.0014534.5164642.0994854.8816833.2904892 1.0778122.1979809.1960983.481926.1913071.8484039-.0202942.3665085-.2115936.6495285-.5341454.842289-.9558182.1927567-.417675.2883759-.8947105.2869186-1.4111748-.0014877-.520462-.0994835-.8817177-.2939606-1.0758324-.1945075-.2020415-.4784545-.1933173-.844963.0182801zm-.5007668 2.9194527c-.1216297-.1486359-.1812878-.4205856-.1823788-.8099327-.001091-.3853493.0567818-.7291832.1771889-1.0135956.1204071-.2843742.2860622-.4874458.5073109-.6151886.2247505-.1297607.3910332-.1183243.5091591.0283241.1216316.1446686.184761.4186325.1858482.8039818.001091.3893471-.0602837.7312012-.1806602 1.0195427-.1169357.2823944-.282589.4815292-.5073395.61129-.221283.1277466-.3875313.1202774-.5091286-.0244217z" fill="#c9cee2"/></g></g></g><g><g><g><path d="m24.3963032 74.2164688c.3630047-.20961.6460934-.5322266.8422546-.9558487.1927567-.4217072.2883759-.8947144.2869205-1.4112091-.0014877-.520401-.099453-.8816833-.2939606-1.075798-.1979465-.2000961-.481926-.1953049-.8449326.0142746-.3699474.2135849-.6530018.5361633-.845726.9618378-.1892872.4156952-.2883759.8907394-.2869205 1.411171.0014877.5164719.1029224.8757095.2939606 1.075798.1944771.1981124.4784565.1933212.848404-.0202256zm.5007972-2.919487c.1215973.1486359.1812553.4206161.1823463.8099365.0011234.3893433-.0567837.7291794-.1771564 1.0175552-.1204071.2844162-.2860622.4835129-.5073757.6112595-.2247181.1297607-.3909683.122261-.5091286-.0243912-.1216297-.1486359-.1847248-.4186325-.1858158-.8079453-.0011234-.3893509.0602531-.7312012.1806278-1.0195465.1169701-.2824249.2826233-.4815292.5073414-.6112595.2212811-.127777.3875313-.1202696.509161.0243913z" fill="#c9cee2"/></g></g><g><g><path d="m27.8437862 71.9394455c0 .0703964-.0216484.135376-.0649796.20578-.0379105.0703964-.0866604.1191483-.1462193.1570282l-1.250906.7202225c-.0595589.0324936-.1083107.0379105-.1516075.0162659-.0379105-.0216827-.0595932-.0649796-.0595932-.1353836 0-.0649796.0216827-.135376.0595932-.20578.0432968-.0758209.0920486-.1245651.1516075-.1570587l.4386292-.2599182-.0054207-2.2364731-.3573875.4061432c-.0433311.0433273-.0758209.0758209-.1083107.0974655-.0595589.0324936-.1083107.0379105-.1516075.0162582-.0379105-.0216751-.0595932-.0703964-.0595932-.1407928 0-.10289.0433311-.20578.1245728-.2978287l.5469055-.6552505c.0433311-.0487213.0920811-.0866318.1299915-.1083145l.086628-.0487137c.0649796-.0379105.1191521-.043335.1624489-.0162659.0487518.0270691.0704002.0758209.0704002.146225l.0108414 2.5830536.3628082-.2112045c.0595589-.032486.10289-.0379105.1462193-.0108414.0433311.0216826.0649795.0704039.0649795.1353835z" fill="#4c5c75"/></g></g><g><g><path d="m29.4752159 71.2841263c.3665104-.2115936.6495647-.5341797.8457584-.9578323.1892872-.419693.2883434-.8947067.2868881-1.4111786-.0014877-.5204315-.1029224-.8796997-.2939281-1.0758286-.197979-.2000961-.481926-.1953049-.8484364.0162964-.3664761.2115936-.6495304.5341492-.8422546.959816-.1927567.4177094-.2883759.8907471-.2869205 1.4111786.0014877.5164642.0994854.8777161.2939606 1.0758286.1945095.1980743.4784565.1933211.8449325-.0182801zm.5007992-2.9194794c.1216297.1486282.1847572.4186325.1858482.8079453.001091.3893509-.0602531.7312012-.1806602 1.0195465-.1169357.2824249-.2826233.4815292-.5073414.61129-.2212811.127739-.3875313.1202698-.5056915-.026413-.1216297-.1486282-.1847248-.4185944-.1858158-.8079453-.0011234-.3893127.0602531-.7311707.1806602-1.0195465.1169376-.2823944.2825909-.4815292.5038719-.6092758.2247181-.1297226.3909683-.1222534.5091286.0243988z" fill="#c9cee2"/></g></g><g><g><path d="m32.9232292 69.004425c0 .0703964-.0162621.135376-.0595589.20578-.0433311.0703964-.092083.1245346-.1516418.1570282l-1.2509041.7202301c-.0541382.032486-.1083107.0433273-.1462212.0216446-.0432968-.0270691-.0595589-.0703964-.0595589-.1408005 0-.0649796.0162621-.135376.0595589-.2057419.0379105-.0704041.0866623-.1245728.1462212-.1570663l.4440479-.2544937-.0054207-2.2418976-.3573875.4061432c-.0433292.0487137-.0812397.0812378-.1083088.0974655-.0649796.0324936-.1137314.043335-.1570625.0216522-.0378761-.0270691-.0595589-.0757904-.0595589-.1461868 0-.10289.0433311-.20578.1245728-.2978287l.5523243-.6552505c.0433311-.0487518.0866623-.0812378.129961-.1083069l.0812416-.0487213c.0649796-.0379105.1245384-.0433273.1678658-.0162582.0433311.0270691.0704002.0758209.0704002.1462173l.0054207 2.5830154.3628082-.2057724c.0541382-.0378799.1083107-.0433044.1516418-.0162354.0378762.0216524.0595589.0704042.0595589.1353837z" fill="#c9cee2"/></g></g><g><g><path d="m34.5576324 68.3498001c.3630066-.2095795.6495323-.5341797.8422546-.9558487.1927261-.4216766.2883759-.8947067.2869225-1.411171-.0014877-.5204315-.0994873-.881691-.2939606-1.075798-.1945114-.2021179-.481926-.1953354-.8449326.0142746-.3665085.2115936-.6530342.5361633-.8457603.9618378-.1892853.4156876-.2849045.8887253-.2834167 1.4091568.0014534.5164642.099453.8777161.290493 1.0778122.1944733.1981125.4818917.1913376.8484001-.0202637zm.5007668-2.9194488c.1216278.1486359.1812859.4206161.1823769.8099289.0011253.3893509-.0567818.729187-.1771889 1.0175629-.1203728.2843781-.2860603.4835129-.507309.6112595-.2213135.127739-.3875313.1202698-.5091591-.0243912-.1216316-.1486359-.1847267-.4186325-.1858521-.8079834-.001091-.3893127.0602875-.7311707.1806602-1.0195465.1204071-.2843704.2860641-.4834747.5073433-.6112518.2212831-.1277467.3875314-.1202775.5091287.0244216z" fill="#c9cee2"/></g></g></g></g><g><g><g><g><path d="m52.8874588 35.516098c.3630066-.2096138.6460915-.5322304.8422546-.9558525.1927567-.4217072.2883759-.8947105.2869186-1.4112091-.0014839-.5203972-.0994492-.8816833-.2939606-1.075798-.1979446-.2000923-.481926-.1953011-.8449326.0142784-.3699455.2135811-.6529999.5361671-.845726.9618378-.1892853.4156914-.288372.8907433-.2869186 1.411171.0014877.516468.1029205.8757057.2939606 1.075798.1944772.1981124.4784547.1933212.848404-.0202256zm.5007973-2.9194832c.1215973.148632.1812553.4206123.1823463.8099289.0011215.3893471-.0567818.729187-.1771584 1.0175591-.1204071.2844124-.2860603.4835129-.5073738.6112595-.22472.1297607-.3909683.1222572-.5091286-.0243912-.1216316-.1486359-.1847267-.4186325-.1858177-.8079491-.0011215-.3893471.0602531-.7312012.1806297-1.0195427.1169701-.2824287.2826233-.4815292.5073433-.6112595.2212792-.1277771.3875276-.1202735.5091592.024395z" fill="#c9cee2"/></g></g><g><g><path d="m56.3349419 33.2390709c0 .0704002-.0216484.1353798-.0649796.20578-.0379105.0704002-.0866623.1191521-.1462212.1570282l-1.2509041.7202263c-.0595589.0324898-.1083107.0379105-.1516075.0162621-.0379105-.0216827-.0595932-.0649796-.0595932-.1353798 0-.0649796.0216827-.1353798.0595932-.20578.0432968-.0758171.0920486-.1245689.1516075-.1570587l.4386292-.2599182-.0054207-2.2364731-.3573875.4061375c-.0433311.0433311-.0758209.0758209-.1083107.0974693-.0595589.0324898-.1083107.0379105-.1516075.0162621-.0379105-.0216808-.0595932-.0704002-.0595932-.1408005 0-.10289.0433311-.2057781.1245728-.2978268l.5469055-.6552505c.0433311-.0487175.0920792-.086628.1299896-.1083088l.0866318-.0487194c.0649796-.0379105.1191483-.0433292.1624489-.0162601.048748.0270691.0703964.075819.0703964.1462193l.0108414 2.5830536.3628082-.2112007c.0595589-.0324898.10289-.0379105.1462212-.0108414.0433311.0216825.0649795.0704.0649795.1353796z" fill="#c9cee2"/></g></g><g><g><path d="m57.9663696 32.5837555c.3665123-.2115974.6495667-.5341797.8457603-.9578362.1892853-.4196892.2883415-.8947086.2868881-1.4111729-.0014877-.5204315-.1029243-.8797035-.2939301-1.0758305-.197979-.2000961-.481926-.195303-.8484344.0162945-.366478.2115955-.6495323.5341473-.8422546.9598198-.1927567.4177055-.2883759.8907413-.2869225 1.4111729.0014877.5164642.0994873.8777199.2939644 1.0758286.1945077.198082.4784547.1933212.8449288-.0182762zm.5008011-2.9194851c.1216278.148634.1847572.4186325.1858482.8079491.001091.3893471-.0602531.7312012-.1806602 1.0195427-.1169357.2824268-.2826233.4815292-.5073433.6112919-.2212791.1277428-.3875313.1202736-.5056877-.0264091-.1216316-.148634-.1847267-.4186001-.1858177-.8079472-.0011253-.3893166.0602531-.7311687.1806602-1.0195446.1169357-.2823925.2825928-.4815292.5038719-.6092739.22472-.1297284.3909684-.1222573.5091286.0243911z" fill="#c9cee2"/></g></g><g><g><path d="m61.4143829 30.3040524c0 .0704002-.0162582.1353798-.0595589.2057781-.0433273.0704002-.0920792.1245403-.151638.1570301l-1.2509079.7202282c-.0541382.0324898-.1083107.0433292-.1462212.0216484-.0432968-.0270691-.0595589-.0704002-.0595589-.1408005 0-.0649796.0162621-.1353798.0595589-.2057457.0379105-.0704002.0866623-.1245728.1462212-.1570625l.4440498-.2544975-.0054207-2.2418919-.3573875.4061375c-.0433311.0487194-.0812416.0812416-.1083107.0974693-.0649796.0324898-.1137314.0433311-.1570587.0216484-.0378799-.0270691-.0595627-.0757866-.0595627-.1461868 0-.10289.0433311-.20578.1245728-.2978287l.5523262-.6552486c.0433311-.0487499.0866623-.0812397.1299591-.1083107l.0812416-.0487175c.0649796-.0379105.1245384-.0433311.1678696-.0162621.0433311.027071.0704002.0758209.0704002.1462212l.0054207 2.5830193.3628082-.20578c.0541382-.0378761.1083107-.0432968.151638-.0162277.03788.0216483.0595589.0704001.0595589.1353797z" fill="#c9cee2"/></g></g><g><g><path d="m63.04879 29.6494312c.3630028-.2095814.6495285-.5341816.8422546-.9558544s.2883759-.8947067.2869186-1.4111729c-.0014877-.5204296-.0994873-.8816853-.2939606-1.075798-.1945076-.2021103-.481926-.1953354-.8449326.0142784-.3665085.2115974-.6530342.5361652-.8457565.9618359-.1892891.4156914-.2849045.8887272-.2834167 1.4091568.0014534.5164661.0994492.8777199.2904892 1.0778141.1944771.1981125.4818917.1913357.848404-.0202599zm.5007629-2.9194526c.1216316.148634.1812897.4206161.1823807.8099308.0011215.389349-.0567818.7291851-.1771889 1.017561-.1203766.2843761-.2860641.4835129-.5073128.6112576-.2213135.1277447-.3875275.1202755-.5091591-.0243912-.1216316-.148634-.1847267-.4186325-.1858482-.8079815-.001091-.3893147.0602837-.7311687.1806602-1.0195446.1204071-.2843761.2860603-.4834785.5073433-.6112556.2212792-.1277448.3875275-.1202756.5091248.0244235z" fill="#c9cee2"/></g></g><g><g><path d="m65.5899658 28.1822681c.3630371-.2095795.6460953-.532198.8422852-.9558525.1927567-.4216728.2883453-.8946762.2868881-1.4111729-.0014877-.5203991-.0994492-.8816872-.2939301-1.075798-.1979752-.2001286-.481926-.195303-.8449631.0142784-.3699493.2135792-.6529999.5361633-.845726.9618359-.1892853.4156895-.2849045.8887253-.2834473 1.4091568.0014877.5164642.0994492.877718.2905197 1.0778141.194481.1981106.4784242.1933193.8483735-.0202618zm.5007935-2.9194507c.1216354.148632.1812897.4206142.1823807.8099308.001091.3893471-.0568161.7291851-.1772232 1.017561-.120369.2843761-.286026.483511-.507309.6112556-.2247467.1297607-.3909683.1222591-.5091629-.0243912-.1216278-.148634-.1846924-.4186325-.1858139-.8079815-.001091-.3893147.060257-.7311668.1806641-1.0195103.1169357-.2824268.2825851-.4815292.5073395-.61129.2212447-.1277446.3875274-.1202754.5091247.0244256z" fill="#c9cee2"/></g></g><g><g><path d="m68.1311722 26.715107c.3630066-.2095814.6460953-.532198.8422546-.955822.1892853-.4196892.2883759-.8947411.2869186-1.4112053-.0014801-.5203972-.102951-.8796692-.2939606-1.075798-.1979446-.2001266-.481926-.1953011-.8449326.0142784-.3699417.2135792-.6529999.5361633-.845726.9618359-.1927567.4176731-.2883682.8907413-.2869186 1.4111404.0014877.5164967.0994568.8777199.2939606 1.0758305.1944809.1981124.4784546.1933517.848404-.0202599zm.4973297-2.9174691c.1216278.148632.1847229.4186325.1858139.8079472.0011215.389349-.0602493.7312012-.1806259 1.0195446-.1169357.2823925-.2826233.4815292-.5039063.6092739-.2247162.1297607-.3909683.1222572-.5091248-.0243931-.1216354-.148632-.1847305-.4186325-.1858215-.8079796-.0011215-.3893166.060257-.7311687.1806335-1.0195122.1169662-.2824249.2825851-.4815292.5073395-.61129.221283-.1277446.3875275-.1202411.5056916.0264092z" fill="#c9cee2"/></g></g><g><g><path d="m71.5786591 24.4394016c0 .0649796-.0216522.1353798-.0649796.20578-.0378799.0704002-.0866318.1191502-.1461868.1516399l-1.2509079.7256165c-.0595932.0324898-.1083069.0379105-.1516418.0162601-.0379105-.0270691-.0595551-.0703983-.0595551-.1353779 0-.0704002.0216446-.1408005.0595551-.2112007.0379105-.0649796.0920486-.1191521.1516418-.1570282l.4386292-.2545319-.0054245-2.2418919-.3574142.4115582c-.0432968.0433311-.0757904.0758209-.1082764.0920486-.0595932.0379105-.1137314.0433311-.1516418.0216827-.043335-.0216827-.0595627-.0704002-.0595627-.1462212 0-.1028881.043335-.2057781.1245422-.2978268l.546936-.6498299c.0433273-.0487175.0920486-.086628.1299591-.1083088l.0866623-.0541401c.0649796-.0324898.1191177-.0379086.1624451-.0108395.0487213.0216808.0704041.075819.0704041.1462193l.0108032 2.5830517.3628464-.2111988c.0595551-.0324898.10289-.0379105.1461868-.0162621.0433272.0271038.0649795.0704006.0649795.1408008z" fill="#c9cee2"/></g></g><g><g><path d="m60.5233803 36.6944237c.3665085-.2115974.6495628-.5341492.8422852-.9558563.1927261-.4216385.2883759-.8946724.2869225-1.411171-.0014877-.5204315-.0994873-.8816528-.2939606-1.075798-.1945114-.2020454-.4784546-.197319-.8449669.0142784-.3664742.2115974-.6529999.5361938-.845726.961834-.1892853.4156914-.2849045.8887596-.2834511 1.4091568.0014877.5164986.0994873.8777542.2905273 1.077816.1979446.1961288.4818916.1913337.8483696-.0202599zm.5007973-2.9194527c.1216278.148632.1847267.4185982.1858482.8079453.001091.3893166-.0602531.7311707-.1806602 1.0195465-.1169357.2823906-.2825928.4815292-.5073433.61129-.2212791.1277428-.3875275.1202736-.5091248-.0244255-.1216316-.148632-.1812897-.4206161-.1823807-.8099632-.0011253-.3893166.0568161-.7291527.1771889-1.0175285.1203766-.2843781.2860641-.4835129.5073433-.6112556.22472-.1297609.3910026-.1222612.5091286.024391z" fill="#c9cee2"/></g></g><g><g><path d="m63.0645866 35.2272606c.3630409-.2095833.6495323-.5341492.842289-.9558563.1927261-.4216385.2883759-.8946724.2868881-1.411171-.0014572-.5203972-.0994873-.8816528-.2939606-1.0757656-.1945114-.2020779-.4818954-.1953678-.8449326.014246-.366478.2115974-.6530037.5362282-.845726.9618683-.1892853.4156914-.2849045.8886909-.2834511 1.4091225.0014877.5164986.099453.8777542.2904892 1.0778503.1944772.1981087.4819261.1912994.848404-.0202942zm.5007973-2.9194527c.1216316.148632.1812553.4206161.1823807.8099289.001091.3893509-.0568161.729187-.1772232 1.0175629-.1203728.2844086-.2860298.4835129-.507309.61129-.221283.1277428-.3875313.1202431-.5091591-.0244255-.1216316-.148632-.1847267-.4186325-.1858177-.8079491-.0011253-.3893471.0602531-.7311668.1806602-1.0195427.1204071-.2843742.2860298-.4835129.5073433-.6112556.2212449-.1277466.3875313-.1202775.5091248.0243911z" fill="#c9cee2"/></g></g><g><g><path d="m65.6057968 33.7600975c.3630066-.2095795.6460953-.5321655.8422546-.955822.1927567-.4216728.2883453-.8947067.2868881-1.4111729-.0014572-.5204296-.0994186-.8816853-.2939301-1.0757961-.1979446-.2000961-.481926-.1953354-.8449326.0142441-.3699417.2135792-.6529999.5361977-.845726.9618359-.1893158.4157238-.284935.8887577-.2834473 1.4091587.0014496.5164948.0994492.8777504.2904892 1.0778122.1944734.1981124.4784548.1933517.8484041-.0202599zm.500763-2.9194527c.1216278.148634.1812897.4206161.1823807.8099308.0011215.389349-.0567856.7291851-.1771927 1.017561-.120369.2844086-.2860565.4835129-.5073395.61129-.2247162.1297264-.3909683.1222572-.5091248-.0244255-.1216354-.148632-.1847305-.4186325-.1858215-.8079796-.0011215-.3893166.0602188-.7311363.1806259-1.0195103.1169739-.2823944.2825928-.4814968.5073471-.6112576.221283-.1277446.3875275-.1202754.5091248.0243912z" fill="#c9cee2"/></g></g><g><g><path d="m69.0497742 31.4845581c0 .0649796-.0162277.1407986-.0595551.2057781-.043335.0704002-.0920486.1191196-.146225.1516094l-1.2563248.725647c-.0541382.0324898-.10289.0379105-.1461868.0162621-.0379105-.0271034-.0595932-.0704002-.0595932-.1353798 0-.0704002.0216827-.1408005.0595932-.2112007s.0866318-.1191483.1461868-.1570587l.4440536-.2544994-.0054245-2.2418919-.3573837.4115582c-.043335.0433311-.0812454.0758209-.1083145.0920486-.0649796.0379105-.1136932.0433311-.1516037.0216827-.0379105-.0271034-.0595932-.0704002-.0595932-.1408005 0-.10289.0379105-.20578.1191483-.3032494l.5523605-.6444073c.0432968-.0541725.0866318-.0920486.1299591-.1191521l.0866318-.0487175c.0649796-.0324898.1191483-.0379105.1624451-.0108414.043335.0216503.0704041.0758209.0704041.1462212l.0054169 2.5830193.3628082-.2111664c.0595932-.0324898.1083069-.0379105.1516418-.0162621.0433273.0270692.0595551.0704004.0595551.1408006z" fill="#4c5c75"/></g></g><g><g><path d="m70.6847076 30.8277874c.366478-.2115955.6495361-.5341473.845726-.9578362.1893234-.4196892.2883759-.8947067.2869263-1.4111729-.0014877-.5204315-.1029282-.8797016-.2939682-1.075798-.1979752-.2000942-.481926-.1953354-.8483963.0162621-.366478.2115955-.6495361.534214-.8422546.9598522-.1927643.4176731-.2883759.8907089-.2869263 1.4111404.0014877.5164986.0994568.8777199.2939606 1.0758305.1944809.1981125.4784546.1933193.8449325-.0182781zm.5008011-2.9194508c.1216278.148634.1847229.4185982.1858139.8079472.0011292.3893147-.0602493.7311687-.1806259 1.0195103-.1169357.2824268-.2826233.4815636-.5073395.6112919-.221283.1277771-.3875351.1202736-.5056915-.0264091-.1216278-.148634-.1847305-.4185982-.1858215-.8079472-.0011215-.3893147.060257-.7311687.1806641-1.0195446.1169357-.2823925.2825623-.4814968.5038757-.6092415.2247162-.1297608.3909607-.1222897.5091247.024393z" fill="#c9cee2"/></g></g><g><g><path d="m60.5392113 42.2722816c.3664742-.2115936.6495285-.5341797.8422852-.9558868.1927261-.4176712.2883759-.8946724.2868919-1.4111366-.0014572-.5204315-.0994873-.8816872-.2939644-1.075798-.1945076-.2020798-.4784546-.1933212-.8449326.0182762-.3664742.2115631-.6530342.5321655-.8457222.9578362-.1892891.4156914-.2849388.8887253-.2834511 1.4091911.0014534.5164299.0994835.8816528.2904892 1.0777473.1979485.1961288.481926.1913681.848404-.0202294zm.5007972-2.9155159c.1216316.1446991.1847267.4186325.1858177.8040123.0011215.3893166-.0602531.7311707-.1806602 1.0195465-.1169052.2823906-.2825928.4814949-.5073433.6112556-.2212486.1277428-.3875313.1202736-.5091286-.0243912-.1216278-.1486664-.1812553-.4206161-.1823769-.8099327-.001091-.3854141.0568123-.7291832.1772194-1.0136261.1203766-.2843437.2860298-.4874802.5073128-.6152229.2247506-.1297607.3909989-.1182937.5091591.0283585z" fill="#c9cee2"/></g></g><g><g><path d="m63.0804176 40.8051224c.3630066-.2095833.6495323-.5341835.8422546-.9558563.1927605-.4177055.2883797-.8947067.2869225-1.4111404-.0014877-.520462-.0994873-.8817177-.2939606-1.0758286-.1945076-.2020798-.481926-.1913376-.8449326.0182419-.3665085.2115974-.6530342.5322342-.8457565.9578705-.1892891.4156914-.2849083.8887253-.2834206 1.4091568.0014534.5164642.099453.8816872.290493 1.077816.1944734.1981124.4818917.1913337.8484002-.0202599zm.5007668-2.9154854c.1216316.1446648.1812897.4205818.1823807.8059959.0011215.3893166-.0568161.7291527-.1771927 1.0175285-.1203728.2843742-.2860603.4834785-.5073433.6112556-.2212791.1277466-.3874969.1202431-.5091248-.0243912-.1216316-.148632-.1847267-.4186325-.1858521-.8079491-.001091-.3853798.0602531-.7311668.1806602-1.0156097.1204071-.2843781.2860641-.4874458.5073433-.6152229.2212831-.1277465.3875314-.1162757.5091287.0283929z" fill="#c9cee2"/></g></g><g><g><path d="m65.6118774 35.9134102c-.3699493.2135811-.6529999.5321655-.845726.9578362-.1892853.4156914-.2849045.8887291-.2834473 1.4091911.0014877.5164337.0994797.8816528.2905197 1.0777473.1944733.1981468.4784241.1933517.8483734-.0202255.3630371-.2095833.6460876-.5321999.8422852-.9558563.1927567-.4177055.2883453-.8946724.2868881-1.4111366-.0014877-.5204659-.0994492-.8817215-.2939606-1.0758324-.1979445-.2000962-.4818953-.1913376-.8449325.0182762zm-.500801 2.9194527c-.1216278-.148632-.1846924-.4186325-.1858139-.8079491-.001091-.3854141.0602493-.7311668.1806641-1.0155754.1169357-.2823944.2825851-.4854965.5073395-.6152573.2212448-.1277428.3875275-.1162758.5091248.0283928.1216354.1446648.1812897.4205818.1823807.8059959.001091.3893166-.0568161.7291527-.1772232 1.0175285-.1203766.2843742-.286026.4835129-.507309.6112556-.2247545.1297609-.3909685.1222612-.509163-.024391z" fill="#c9cee2"/></g></g><g><g><path d="m69.06604 37.0621872c0 .0649796-.0162659.1408005-.0595932.20578-.0432968.0704002-.0920486.1191521-.1461868.1516418l-1.2563248.7256165c-.0541382.0324898-.10289.0379066-.146225.0162582-.0379105-.0216789-.0595551-.0704002-.0595551-.1353798 0-.0704002.0216446-.1407967.0595551-.2057762.0379105-.0704002.0866623-.1245422.146225-.1570625l.444046-.2544975-.0054169-2.2473145-.3573914.4115601c-.0433273.0433311-.0812378.0758209-.1083069.092083-.0649796.0378761-.1137314.0432968-.1570663.0216484-.0379105-.0270691-.0541382-.0704002-.0541382-.1408005-.0054169-.10289.0379105-.20578.1191177-.3032494l.5523605-.6444092c.043335-.0541382.0866623-.0920486.1299591-.1137314l.0866623-.0541382c.0595627-.0324898.1191177-.0379105.1624451-.0108414.043335.0216827.0704041.0758209.0704041.1462212l.0054169 2.5830536.3628082-.20578c.0595627-.0379105.1083145-.0379105.1516113-.0216827.0379106.0271034.0595933.0704003.0595933.1408005z" fill="#c9cee2"/></g></g><g><g><path d="m70.7005386 36.4056511c.366478-.2115974.6495361-.5341835.845726-.9578705.1892853-.4156914.2883453-.8947105.2868881-1.4111404-.0014496-.5204659-.1029205-.8797035-.2939606-1.0758324-.1979446-.2000618-.4818878-.1913338-.8483658.0202637-.3665085.2115936-.6495667.5302124-.8422928.9558525-.1927567.4176712-.2883759.8907089-.2868881 1.411171.0014572.516468.0994568.8816872.2939606 1.075798.194481.1981125.4784242.1933517.8449326-.0182419zm.5008011-2.9155197c.1215973.1446991.1847229.4186325.1858139.8040123.001091.3893166-.0602875.7311707-.1806564 1.0195465-.1169357.2823601-.2825928.4814949-.5073471.6112251-.2212753.1277771-.3874969.1202736-.5056534-.0263786-.1216278-.148632-.1847229-.4186287-.1858521-.8079453-.001091-.3853836.060257-.7311707.1806641-1.0156097.1169357-.2823601.2825928-.485466.5038681-.6132088.2247238-.1297607.3910065-.1182937.5091629.0283585z" fill="#c9cee2"/></g></g><g><g><path d="m60.5452919 44.4255638c-.366478.2115631-.6529999.5321999-.845726.9578362-.1892853.4156914-.2849045.8887596-.2834511 1.4091911.0014534.5164642.0994873.8816872.290493 1.0778122.197979.1960983.481926.1913033.8484001-.0202904.3665123-.2115974.6495323-.5341492.842289-.955822.1927567-.417675.2883759-.8947067.2869225-1.4111748-.0014877-.520462-.0994873-.8817177-.2939606-1.0758286-.1945114-.2020453-.4784584-.1933211-.8449669.0182763zm-.5007668 2.9194527c-.1216278-.148632-.1812859-.4205818-.1823769-.8099289-.001091-.3853493.0567818-.729187.1771889-1.0135956.1204071-.2843781.2860603-.4874458.507309-.6151924.2247505-.1297607.3910332-.1183243.5091629.0283279.1216278.1446648.1847572.4186325.1858482.803978.001091.3893509-.0602875.731205-.1806602 1.0195465-.1169357.2823944-.2825928.4815292-.5073433.61129-.2212791.1277428-.3875313.1202736-.5091286-.0244255z" fill="#c9cee2"/></g></g><g><g><path d="m63.0865021 42.9583702c-.366478.2115974-.6530342.5322304-.845726.9578705-.1892891.4156876-.2849045.8887253-.2834511 1.4091873.0014877.5164642.0994835.8816872.2904892 1.077816.1944771.1981087.481926.1913033.8484039-.0202942.3630371-.2095795.6495285-.5341492.842289-.955822.1927261-.4176712.2883377-.8947067.2868881-1.411171-.0014572-.5204659-.0994873-.8817215-.2939644-1.0758324-.1945076-.2020453-.4818916-.1913375-.8449287.0182458zm-.5008011 2.9194832c-.1216278-.148632-.1847229-.4185982-.1858139-.8079453-.001091-.3853493.0602531-.7311707.1806602-1.0155792.1204071-.2843781.286026-.4874458.5073395-.6151924.2212486-.1277771.3875313-.1163406.5091286.0283279.1216316.1446648.1812897.4206467.1823807.8059959.001091.3893471-.0568161.729187-.1772232 1.0175285-.1203766.2844086-.2860298.4835129-.507309.6112556-.221283.1277811-.3875313.1202776-.5091629-.024391z" fill="#4c5c75"/></g></g><g><g><path d="m66.5425491 44.1073418c0 .0649796-.0216522.1408005-.0595627.20578-.0379105.0704002-.0920486.1191177-.1516113.1516418l-1.2509384.7256165c-.0595551.0324898-.1082764.0379105-.1461868.0162621-.0433273-.0216827-.0595551-.0704002-.0595551-.1353798 0-.0704002.0162277-.1353798.0541382-.20578.0433273-.0704002.0920486-.1245728.1516037-.1570625l.4440536-.2544975-.0053864-2.2473145-.3574219.4115601c-.0487213.0487518-.0812454.0758209-.1137314.0920486-.0595627.0379105-.1082764.0433311-.1516113.0216827-.0379105-.0270691-.0595551-.0704002-.0595551-.1408005 0-.10289.0432968-.20578.1299591-.3032494l.546936-.649826c.0432968-.0487518.0866318-.086628.1299591-.1137314l.0866318-.0487175c.0649796-.0379105.1191483-.0379105.1624451-.0162621.0487518.0271034.0650177.0812416.0704041.1516418l.0054169 2.5830498.3628387-.20578c.0595627-.0379105.108284-.0433311.1516113-.0216789.0379106.0270691.0595628.0703964.0595628.1407967z" fill="#c9cee2"/></g></g><g><g><path d="m68.1688843 40.0240784c-.3699493.2135773-.6529999.532196-.845726.9578362-.1927567.4176712-.2883759.8907394-.2868881 1.411171.0014572.516468.0994568.8817215.2939606 1.0758324.1944809.1981125.4784241.1933174.8483734-.0202942.3630371-.2095795.6460876-.5321655.8422852-.9558182.1892853-.4156914.2883453-.8947105.2868881-1.4111748-.0014877-.5204315-.1029205-.8797035-.2939606-1.0758324-.1979447-.2000619-.4818955-.1913338-.8449326.01828zm-.5008011 2.9194832c-.1216278-.148632-.1846924-.4186325-.1858139-.8079796-.001091-.3853493.060257-.7311707.1806641-1.0155449.1169357-.2824249.2825851-.4854622.5073395-.6152229.2212448-.1277466.3875275-.1163406.5056915.0303421.1215973.1446648.1847229.4186325.1858139.803978.001091.3893509-.0602875.7311707-.1806564 1.0195465-.1169434.2823944-.2826309.4815292-.5038757.609272-.2247544.1297607-.3909684.122261-.509163-.0243912z" fill="#c9cee2"/></g></g><g><g><path d="m70.7066193 38.5588989c-.3664703.2115974-.649559.5302467-.8422546.9558525-.1927567.4177055-.2883759.8907433-.2869186 1.4111748.0014877.5164948.0994873.8817177.2939606 1.0758286.1944733.1981125.4784546.1933212.8449326-.0182762s.6495285-.5341492.845726-.9578056c.1893234-.4157219.2883759-.8947411.2869186-1.4112053-.0014877-.5204315-.1029205-.8797035-.2939606-1.0758286-.1979753-.2000618-.4819261-.1913033-.848404.0202598zm-.4973221 2.9174691c-.1216354-.1486359-.1847305-.418602-.1858215-.8079491-.001091-.3853493.060257-.7311668.1806641-1.0155792.1169357-.2823906.2825546-.4854279.5038681-.613205.2247238-.1297264.3909683-.1183243.5091324.0283585.1216278.1446648.1847229.4186325.1858139.8039818.0011215.3893471-.0602493.7311668-.1806259 1.0195427-.1169739.2823944-.2826233.4815292-.5073471.6112556-.2212755.1277809-.3875276.1202774-.505684-.0264053z" fill="#c9cee2"/></g></g></g><g><g><g><path d="m61.4143829 52.5476112c0 .0704002-.0162582.1353798-.0595589.20578-.0433273.0704002-.0920792.1245384-.151638.1570282l-1.2509079.7202301c-.0541382.0324898-.1083107.0433311-.1462212.0216484-.0432968-.0270691-.0595589-.0704002-.0595589-.1408005 0-.0649796.0162621-.1353798.0595589-.2057457.0379105-.0704002.0866623-.1245728.1462212-.1570625l.4440498-.2544975-.0054207-2.2418938-.3573875.4061394c-.0433311.0487175-.0812416.0812416-.1083107.0974693-.0649796.0324898-.1137314.0433311-.1570587.0216484-.0378799-.0270691-.0595627-.0757866-.0595627-.1461868 0-.10289.0433311-.20578.1245728-.2978287l.5523262-.6552505c.0433311-.048748.0866623-.0812378.1299591-.1083069l.0812416-.0487213c.0649796-.0379105.1245384-.0433311.1678696-.0162582.0433311.0270691.0704002.0758171.0704002.1462173l.0054207 2.5830193.3628082-.20578c.0541382-.0378761.1083107-.0432968.151638-.0162277.03788.0216484.0595589.0704002.0595589.1353797z" fill="#c9cee2"/></g></g><g><g><path d="m63.04879 51.8929901c.3630028-.2095795.6495285-.5341797.8422546-.9558525s.2883759-.8947067.2869186-1.4111748c-.0014877-.5204277-.0994873-.8816833-.2939606-1.0757942-.1945076-.2021141-.481926-.1953354-.8449326.0142746-.3665085.2115974-.6530342.5361671-.8457565.9618378-.1892891.4156914-.2849045.8887253-.2834167 1.4091568.0014534.5164642.0994492.8777199.2904892 1.0778122.1944771.1981125.4818917.1913376.848404-.0202599zm.5007629-2.9194488c.1216316.148632.1812897.4206123.1823807.8099289.0011215.3893471-.0567818.729187-.1771889 1.0175591-.1203766.2843781-.2860641.4835129-.5073128.6112595-.2213135.1277428-.3875275.1202736-.5091591-.0243912-.1216316-.1486359-.1847267-.4186325-.1858482-.8079834-.001091-.3893127.0602837-.7311668.1806602-1.0195427.1204071-.2843781.2860603-.4834785.5073433-.6112556.2212792-.1277467.3875275-.1202776.5091248.0244254z" fill="#c9cee2"/></g></g><g><g><path d="m65.5899658 50.425827c.3630371-.2095795.6460953-.532196.8422852-.9558525.1927567-.4216728.2883453-.8946724.2868881-1.411171-.0014877-.520401-.0994492-.8816872-.2939301-1.075798-.1979752-.2001305-.481926-.1953049-.8449631.0142784-.3699493.2135773-.6529999.5361633-.845726.961834-.1892853.4156914-.2849045.8887253-.2834473 1.4091568.0014877.5164642.0994492.8777199.2905197 1.077816.194481.1981087.4784242.1933174.8483735-.0202637zm.5007935-2.9194488c.1216354.148632.1812897.4206123.1823807.8099289.001091.3893471-.0568161.729187-.1772232 1.0175629-.120369.2843742-.286026.4835129-.507309.6112556-.2247467.1297607-.3909683.1222572-.5091629-.0243912-.1216278-.1486359-.1846924-.4186325-.1858139-.8079796-.001091-.3893166.060257-.7311707.1806641-1.0195122.1169357-.2824287.2825851-.4815292.5073395-.61129.2212447-.1277465.3875274-.1202773.5091247.0244256z" fill="#c9cee2"/></g></g><g><g><path d="m68.1311722 48.9586678c.3630066-.2095833.6460953-.5321999.8422546-.955822.1892853-.4196892.2883759-.8947411.2869186-1.4112053-.0014801-.5203972-.102951-.8796692-.2939606-1.075798-.1979446-.2001266-.481926-.1953011-.8449326.0142784-.3699417.2135773-.6529999.5361633-.845726.961834-.1927567.417675-.2883682.8907433-.2869186 1.4111404.0014877.5164986.0994568.8777199.2939606 1.0758324.1944809.1981124.4784546.1933517.848404-.0202599zm.4973297-2.9174691c.1216278.148632.1847229.4186325.1858139.8079453.0011215.3893509-.0602493.7312012-.1806259 1.0195465-.1169357.2823906-.2826233.4815292-.5039063.609272-.2247162.1297607-.3909683.1222572-.5091248-.0243912-.1216354-.148632-.1847305-.4186325-.1858215-.8079796-.0011215-.3893166.060257-.7311707.1806335-1.0195122.1169662-.2824249.2825851-.4815292.5073395-.61129.221283-.1277465.3875275-.120243.5056916.0264092z" fill="#c9cee2"/></g></g><g><g><path d="m71.5786591 46.6829605c0 .0649796-.0216522.1353798-.0649796.20578-.0378799.0704002-.0866318.1191521-.1461868.1516418l-1.2509079.7256165c-.0595932.0324898-.1083069.0379105-.1516418.0162621-.0379105-.0270729-.0595551-.0704002-.0595551-.1353798 0-.0704002.0216446-.1408005.0595551-.2112007.0379105-.0649796.0920486-.1191521.1516418-.1570282l.4386292-.2545319-.0054245-2.2418938-.3574142.4115601c-.0432968.0433311-.0757904.0758209-.1082764.0920486-.0595932.0379105-.1137314.0433311-.1516418.0216827-.043335-.0216827-.0595627-.0704002-.0595627-.1462212 0-.10289.043335-.20578.1245422-.2978287l.546936-.6498299c.0433273-.0487175.0920486-.086628.1299591-.1083069l.0866623-.0541382c.0649796-.0324898.1191177-.0379105.1624451-.0108414.0487213.0216789.0704041.0758171.0704041.1462173l.0108032 2.5830536.3628464-.2112007c.0595551-.0324898.10289-.0379105.1461868-.0162621.0433272.0271038.0649795.0704006.0649795.1408008z" fill="#4c5c75"/></g></g></g></g></g><g><g><g enable-background="new"><g><g><g><path d="m47.0249825 41.930912c2.1414986.689888 4.7729149.2762756 7.9863319-1.4416466l.0231705 8.1724663c-.5590706 7.2793694-3.743145 11.9676323-7.9460297 15.6577568-4.210041 1.1670837-7.4102478.1647873-8.0116806-6.4445686l-.0231705-8.1724625c3.2126389-1.9921646 5.8377991-4.6134414 7.9713784-7.7715454z" fill="#e93565"/></g></g><g><g><path d="m40.1704178 57.8231354-.0213661-7.5214806c2.8149147-1.8393097 5.2791634-4.2301178 7.3396072-7.1203461 2.1770515.4440498 4.4073105-.0859642 6.4337082-.9531708l.0181618 6.3928452c-.4719124 6.0274963-2.7534904 10.575695-7.3842087 14.7085953-3.8075562.9822731-5.8887482-.1805649-6.3859024-5.506443z" fill="#fff"/></g></g></g></g></g><g><g><g><g><path d="m48.1967583 57.6255836c0 .6626091-.4585533 1.4775047-1.0451775 1.8000832-.5429115.3258781-1.0452652.0938644-1.0452652-.5951538 0-.6214256.4324265-1.4411392 1.030735-1.800087.6320687-.3475685 1.0597077-.00354 1.0597077.5951576z" fill="#4c5c75"/></g></g><g><g><path d="m46.4983025 55.8898964-.3048859-5.8213005v-1.8146133c-.0297318-.6237679.4371262-1.3316345.9145699-1.5968285.5296211-.3238068.9145737-.0444946.9145737.5371208v1.8000832l-.2612915 6.169693c-.029705.4154587-.2689133.7829819-.624218 1.0016708-.3602372.193985-.6070939.1353149-.6387482-.2758255z" fill="#4c5c75"/></g></g></g></g></g></g></g><g><g><g><path d="m118.5839233 38.6803017-7.2748031 6.3208198-4.7778397-3.1326866 9.5663452-6.869751z" fill="#566df9"/></g></g><g><g><path d="m102.7255325 125.3848038s-7.7134323-.8552856-8.4838104.3872681c-.7703781 1.2425461-.7000046 5.0655441 1.635994 5.6122665 2.3359909.5467224 7.2062073 1.0654755 9.0948868 2.0098114 1.8886719.9443359 5.6411743.5467224 6.3867035-.7455292s.2236557-4.4980316-.7952347-5.516922-7.8385392-1.7468948-7.8385392-1.7468948z" fill="#9ea9c9"/></g></g><g><g><path d="m119.5812225 112.6630859s-8.6447678-.6886978-4.2771454 2.9108429c1.6899185 1.3927383 4.7275696 2.6023788 6.2064743 3.5791931 1.8024139 1.1904907 5.743866 1.0923157 6.7395401-.2862625.9956818-1.3785782.1390076-3.3909683.1390076-3.3909683z" fill="#9ea9c9"/></g></g><g><g><path d="m109.5503311 89.3021698s.9711456 6.7422562 4.510994 11.1561356c3.5398407 4.4138794 5.1542053 12.8274536 6.7274704 14.5755234s3.9331589 3.714653 7.9100266 1.2673492c0 0-.5334625-15.5426483-6.0337601-22.7057571l-.3881073-16.4481277-14.5986938-1.6635742z" fill="#1d2943"/></g></g><g><g><path d="m98.6288605 78.1291199s-6.5292892 18.0246048-3.5107803 26.60849 7.0841599 18.0608292 7.0841599 21.6453094c0 3.5844727 9.6042786 3.7974701 8.5743637.8048553-.9198761-2.6728439 1.0563278-14.7004776-3.5524368-22.1145859 0 0 6.761116-21.7343674 6.761116-27.4883957-.0000001-5.7540359-15.3564225.5443269-15.3564225.5443269z" fill="#4c5c75"/></g></g><g><g><path d="m123.4375 60.9865417c-3.2000122 5.5-1.8900146 12.4799805-.9000244 15.8899536.9800415 3.4100342-3.1999512 4.3500366-7.6399536 5.6300049-2.6400146.7600098-7.9200439.3099976-11.9800415-.5999756-2.7600098-.6199951-4.9500122-1.4400024-5.3599854-2.2399902-.9400024-1.7999878 4.5700073-19.9299927 6.7700195-27.7000122.1999512-.710022.3699951-1.3400269.5100098-1.8599854.9285507-3.4878197 3.7471085-5.53936 6.1163559-6.4960785 1.8152084-.7329941 13.6736221-2.9039459 13.6736221-2.9039459s2.6699829-.7000122 4.8900146 2.5800171c2.2199708 3.2899781-2.8800048 12.2000122-6.080017 17.7000122z" fill="#8fabfe"/></g></g><g><g><g><g><g><path d="m124.391861 38.844017-.5283279.890995c-1.7838745 1.4538116-4.2064438 1.5852928-7.1611252.7494545l.3292084-.9190369c-4.1264725-.8068123-3.1734238-6.7737808-2.6385956-7.4456787.5347519-.671917.160347-1.1585732.160347-1.1585732-1.1300812-2.0506382.6540222-4.9713573.6540222-4.9713573l7.4758759 3.3699093z" fill="#f4d6d4"/></g></g><g><g><path d="m124.391861 38.844017-.1614838 1.2981567c-2.1175461.972683-7.2705154 1.8315125-7.9519196 1.1298218l.7531586-1.7065659c0 .0000001 4.0573731.8311273 7.3602448-.7214126z" fill="#f5c9c6"/></g></g><g><g><path d="m127.7088318 33.6171913c-1.7255096 2.7104759-3.2604599 5.1970482-3.2604599 5.1970482s-1.0501328.8895378-2.7058258-.0150681c-1.6405487-.9146652-3.1147003-2.8341637-2.8585129-4.1492767.2435532-1.3176994.4081116-1.9283409-.1579895-2.4388733-.5534897-.5078678-1.4400177-.0319557-1.5792236.5838737l-.7317276-.2156258s2.1093063-3.7496719-.6938248-5.6652203c-3.0323029-2.080801-.9590912-4.0494614.4544067-3.7599144 0 0 1.7284241.4856052 3.1460419.4340782 1.4075775-.0667477 4.9972687-.5149727 7.845932 1.9491062 2.835968 2.4613974 2.2566681 5.3540975.5411835 8.0798723z" fill="#8a4852"/></g></g></g></g></g><g><g><path d="m129.1574707 29.2765198s.0500488 1.5-.8399658 1.5700073-.0692139-.8825569.0299683-1.539978c.1821594-1.2073898-.8163605-.464325-1.2663727-.9043274-.4400024-.4400024-.0565033-.4725723.2763824-.8257141.3177719-.3370991-.1270828-.3879623-.4670486-.4679184-.3400269-.0800171-.5604858-.5380611-.1504517-.5480709.4099731-.0200195.9075394.1260357.9774857-.0440083.0599976-.1799927-.9099731-.4299927-1.2199707-.3999634-.3099976.0299683-.2999878-.4000244-.0900269-.6000366.2000122-.2000122-.0999756-.5799561-.0999756-.5799561s2.1300049.9599609 2.289978 1.6399536c.1600342.6799927.1500244.5800171.4299927 1.1400146.2700196.5700074.3800049 1.3099977.1300049 1.5599977z" fill="#f5c9c6"/></g></g><g><g><path d="m117.9475098 33.2365417c.5999756.1599731.7600098.2000122.7600098.2000122s2.0699463.6799927 1.0499878 1.2099609c-1.0200195.5300293-4.8599854.4199829-6.1699829.1099854-1.3100586-.2999878-.2600098-3.1699829-.2600098-3.1699829s.6399536-2.3999634 1.6399536-3.5100098c1-1.1099854 2.460022-1.9299927 2.6100464-1.4500122.1499634.4800415-1.5 1.1800537-1.3600464 1.6000366.1400146.4299927 1.3700562-.4700317 1.7300415-.789978.3599854-.3200073 1.8099976-.6600342 1.8800049-.2800293.0799561.3800049-2.2000122 1.1099854-2.3699951 1.5599976-.1700439.460022.9799805-.0800171 1.6799927-.4199829.7000122-.3500366 2.8399658-.1900024 2.5499878.3399658-.2800293.5200195-3.2200317.8099976-3.2999878 1.3099976-.0800171.5.539978.2400513 1.5.0400391.9500122-.2000122 2.1099854-.1400146 2.1499634.4799805.0400391.6199951-2.7600098.6199951-3.5999756 1.3699951-.840027.7499999-1.090027 1.2499999-.4899903 1.4000243z" fill="#f5c9c6"/></g></g><g><g><path d="m104.32621 51.9634552s-9.9963531-10.3677902-11.1007843-14.3839111c-1.1044388-4.0161209 1.6566467-5.1707535 4.1165237-5.2711563 2.4598694-.1004028 15.8103714-1.9207058 15.8103714-1.9207058 1.9899902.0660763 2.7196198 4.7641277 1.5925446 5.19874l-11.6799469 2.5955429s2.8520355 3.6105347 8.2032242 5.5452805c5.3511887 1.9347419-6.3778 8.701641-6.9419327 8.2362098z" fill="#8fabfe"/></g></g></g><g><g><path d="m104.1574707 75.3965149c-.0599976 1.7000122-.7299805 4.6199951-1.2399902 6.5100098-2.7600098-.6199951-4.9500122-1.4400024-5.3599854-2.2399902-.9400024-1.7999878 4.5700073-19.9299927 6.7700195-27.7000122 0 0 1.3499756 2.289978 3.1300049 3.289978 1.7799683.9900513-3.4300537 8.0700073-3.5599976 10.4800415-.1300048 2.4199829.3399659 7.1799926.2599488 9.6599731z" fill="#678aee"/></g></g><g><g><path d="m125.1875 40.6465149c-3.5966187.525116-7.2974243 1.5701294-10.6500244 2.1900024.3509521-.6594391.7636108-1.2801056 1.6400146-1.6099854 2.5100098-.9100342 5.2992554-1.3651619 8.1092529-1.525135.2199707-.0100098.4299927.0899658.5599976.2699585z" fill="#678aee"/></g></g></g></g></svg>