<svg id="Layer_1" enable-background="new 0 0 68 68" height="512" viewBox="0 0 68 68" width="512" xmlns="http://www.w3.org/2000/svg"><g><g><g><g><g><path d="m66.1362305 30.9677696c0 2.8934937-1.1737061 5.5146484-3.0705109 7.4114227-1.8955193 1.8967743-4.5166473 3.0705109-7.4114227 3.0705109h-42.2415686c-6.3782654 0-11.5489578-5.1706619-11.5489578-11.5489559 0-3.1885052 1.293018-6.0757446 3.3831158-8.1658421 1.5904827-1.5917702 3.6442022-2.7215595 5.9414463-3.1684608.3991842-4.0509243 3.816165-7.2155848 7.9712915-7.2155848 1.1009197 0 2.1503506.2221937 3.1044083.6239214 3.2186298-5.9414463 9.5090599-9.9760666 16.7409496-9.9760666 10.4179115 0 18.8813095 8.3742447 19.0256577 18.7582912 4.6446914 1.0757886 8.1055908 5.238453 8.1055908 10.210764z" fill="#70c1f9"/></g><g opacity=".3"><path d="m51.8588676 14.2128696c-1.1437759 1.1566954-3.9605827.23666-6.2820511-2.0610561-2.3216972-2.2977314-3.2816849-5.101171-2.1376801-6.2578506 1.1437492-1.1562409 3.9506226-.2277498 6.2816353 2.070612 2.3214684 2.2977161 3.2727586 5.0914392 2.1380959 6.2482947z" fill="#fff"/></g></g></g><g opacity=".2"><g><path d="m44.1957932 41.4503326h-15.5157261l-10.112938-30.067399c.2008038-.0201054.391798-.029912.5923557-.029912 1.1047802 0 2.1492481.2206621 3.1032429.6222668 2.0286179-3.7355623 5.2622967-6.7184219 9.1891003-8.4155579z" fill="#fff"/></g><g><path d="m52.5912437 41.4503326h-4.3985291l-13.1357612-39.0351018c1.275425-.2716594 2.5910606-.4119024 3.946907-.4119024.1103325 0 .2108536 0 .3211861.0098073z" fill="#fff"/></g></g></g><g><path d="m56.6838608 31.8729401v31.234005c0 1.5996819-1.2944679 2.8943443-2.8943443 2.8943443h-39.5790349c-1.5998764 0-2.8943415-1.2946625-2.8943415-2.8943443v-31.234005z" fill="#e9e9ff"/></g><g><path d="m45.3056602 58.8353424h-19.8613204c-1.0984173 0-1.7860718-1.1965294-1.2322845-2.1431999l9.9393806-16.9497986c.5448494-.9379463 1.9022789-.9379463 2.4471283 0l9.9393806 16.9497986c.5537872.9466705-.1338692 2.1431999-1.2322846 2.1431999z" fill="#cfcfff"/></g><g><path d="m56.6838608 31.8703232v-4.169899c0-1.5996799-1.2944679-2.8943424-2.8943443-2.8943424l-39.5790329-.0078506c-1.5998764 0-2.8943415 1.3025131-2.8943415 2.8939495v4.1781425z" fill="#4f5d99"/></g><g><g><g><path d="m21.6216736 28.3342762c0 .6972561-.5580616 1.2553177-1.2553177 1.2553177-.6976814 0-1.2555294-.5580616-1.2555294-1.2553177 0-.6976814.557848-1.2553158 1.2555294-1.2553158.6972561 0 1.2553177.5576344 1.2553177 1.2553158z" fill="#ed524e"/></g><g><path d="m17.1929474 28.3342762c0 .6972561-.5665741 1.2553177-1.2553167 1.2553177-.6974688 0-1.2642555-.5580616-1.2642555-1.2553177 0-.6976814.5667868-1.2553158 1.2642555-1.2553158.6887426 0 1.2553167.5576344 1.2553167 1.2553158z" fill="#fdc72e"/></g><g><path d="m26.0589123 28.3342762c0 .6972561-.5665741 1.2553177-1.2640438 1.2553177-.6887417 0-1.2553158-.5580616-1.2553158-1.2553177 0-.6976814.5665741-1.2553158 1.2553158-1.2553158.6974697 0 1.2640438.5576344 1.2640438 1.2553158z" fill="#70c1f9"/></g></g><g><path d="m36.7204132 27.4295597c-.4963837 0-.9047165.4018917-.9047165.9047165 0 .5025196.4083328.9047184.9047165.9047184h15.6952057c.5026703 0 .9110069-.4021988.9110069-.9047184 0-.5028248-.4083366-.9047165-.9110069-.9047165z" fill="#e9e9ff"/></g></g><g><g><path d="m43.9306602 58.8353424h-19.8613204c-1.0984173 0-1.7860718-1.1965294-1.2322845-2.1431999l9.9393806-16.9497986c.5448494-.9379463 1.9022789-.9379463 2.4471283 0l9.9393806 16.9497986c.5537872.9466705-.1338692 2.1431999-1.2322846 2.1431999z" fill="#ed524e"/></g><g><g><path d="m33.4164925 55.2903137c-.1621933-.1616287-.2430077-.3585815-.2430077-.5902863 0-.2221031.0808144-.4142494.2430077-.5761604.1621971-.1619148.3543434-.2430115.5764427-.2430115.2317085 0 .4283752.0810966.5905724.2430115.1616287.161911.2430077.3540573.2430077.5761604 0 .2317047-.0813789.4286575-.2430077.5902863-.1621971.1621933-.3588638.2432938-.5905724.2432938-.2220993 0-.4142456-.0811005-.5764427-.2432938zm.2430114-2.6041603c-.0830765-.0737534-.1294174-.1712379-.1384583-.2916145l-.2503586-4.5832787v-1.3749847c0-.2034492.0695114-.3749695.2085381-.5139923.1390228-.1387405.3102608-.208252.51371-.208252s.3729935.0695114.5069313.208252c.1345024.1390228.2017555.3105431.2017555.5139923v1.3749847l-.2503586 4.5832787c-.0090408.1203766-.0531235.2178612-.1316757.2916145-.0791206.0743141-.1876259.1113319-.3266525.1113319-.1390227.0000001-.2497901-.0370178-.3334312-.1113319z" fill="#e9e9ff"/></g></g></g><g><g><path d="m22.0688267 38.4763489v.8329926c0 .1256638-.1028156.2284775-.2284756.2284775h-6.9350777c-.1275444 0-.2318983-.1043549-.2318983-.2318993v-.8295708c0-.1261826.1022921-.2284737.2284756-.2284737h6.9385004c.1256599 0 .2284756.1028137.2284756.2284737z" fill="#ed524e"/></g><g><path d="m25.3056736 35.161026v.8330803c0 .1256638-.1028137.2284775-.2284737.2284775h-10.1753492c-.1261835 0-.2284756-.1022911-.2284756-.2284775v-.8329926c0-.1261826.1022921-.2284737.2284756-.2284737h10.1754332c.1256141.0000001.2283897.1027718.2283897.228386z" fill="#fdc72e"/></g></g></g></svg>